<svg width="50" height="50" viewBox="0 0 50 50" fill="none" xmlns="http://www.w3.org/2000/svg">
<path opacity="0.4" d="M33.7312 4.1665H16.2708C9.9375 4.1665 6.25 7.87484 6.25 14.229V35.7498C6.25 42.2082 9.9375 45.8332 16.2708 45.8332H33.7312C40.1667 45.8332 43.75 42.2082 43.75 35.7498V14.229C43.75 7.87484 40.1667 4.1665 33.7312 4.1665Z" fill="#A0AABF"/>
<path fill-rule="evenodd" clip-rule="evenodd" d="M16.8335 13.854V13.8748C15.9356 13.8748 15.2085 14.604 15.2085 15.4998C15.2085 16.3957 15.9356 17.1248 16.8335 17.1248H23.0606C23.9585 17.1248 24.6877 16.3957 24.6877 15.4769C24.6877 14.5832 23.9585 13.854 23.0606 13.854H16.8335ZM33.1668 26.5415H16.8335C15.9356 26.5415 15.2085 25.8123 15.2085 24.9165C15.2085 24.0207 15.9356 23.2894 16.8335 23.2894H33.1668C34.0627 23.2894 34.7918 24.0207 34.7918 24.9165C34.7918 25.8123 34.0627 26.5415 33.1668 26.5415ZM33.1668 36.0623H16.8335C16.2085 36.1457 15.6043 35.8332 15.271 35.3123C14.9377 34.7707 14.9377 34.0832 15.271 33.5623C15.6043 33.0207 16.2085 32.729 16.8335 32.7915H33.1668C33.9981 32.8748 34.6252 33.5832 34.6252 34.4373C34.6252 35.2686 33.9981 35.979 33.1668 36.0623Z" fill="#A0AABF"/>
</svg>
