<svg width="121" height="121" viewBox="0 0 121 121" fill="none" xmlns="http://www.w3.org/2000/svg">
<g clip-path="url(#clip0_188_4736)">
<path d="M60.5 98C93.6371 98 120.5 92.1237 120.5 84.875C120.5 77.6263 93.6371 71.75 60.5 71.75C27.3629 71.75 0.5 77.6263 0.5 84.875C0.5 92.1237 27.3629 98 60.5 98Z" fill="#F5F5F5"/>
<path d="M84.1765 25.6226L84.1986 25.6581L84.2263 25.6895L103.125 47.114V63.75H17.875V47.1159L36.7737 25.6876L36.8013 25.6563L36.8233 25.6209C37.6752 24.2513 38.8678 23.5 40.0494 23.5H80.9506C82.1321 23.5 83.3247 24.2512 84.1765 25.6226Z" stroke="#DBDBDC"/>
<path d="M79.0244 52.8706C79.0244 51.4656 79.4601 50.2002 80.1439 49.2967C80.8275 48.3935 81.7355 47.8759 82.7002 47.875H103.125V81.3819C103.125 83.272 102.537 84.9741 101.608 86.1931C100.679 87.4118 99.4321 88.125 98.0938 88.125H22.9062C21.568 88.125 20.3211 87.4114 19.3922 86.1924C18.4632 84.9732 17.875 83.271 17.875 81.3819V47.875H38.3C39.2649 47.875 40.1728 48.3915 40.8562 49.2934C41.5399 50.1957 41.9756 51.4599 41.9756 52.865V52.9062C41.9756 56.064 43.9715 58.8456 46.67 58.8456H74.33C75.6734 58.8456 76.8576 58.1315 77.69 57.0478C78.5222 55.9642 79.0244 54.4896 79.0244 52.8837V52.8706Z" fill="#FAFAFB" stroke="#DBDBDC"/>
</g>
<defs>
<clipPath id="clip0_188_4736">
<rect width="120" height="120" fill="white" transform="translate(0.5 0.5)"/>
</clipPath>
</defs>
</svg>
