<svg width="1080" height="168" viewBox="0 0 1080 168" fill="none" xmlns="http://www.w3.org/2000/svg">
<g clip-path="url(#clip0_1988_133683)">
<path fill-rule="evenodd" clip-rule="evenodd" d="M532.036 -132.403C500.626 -135.702 470.13 -133.304 442.38 -117.412C414.629 -101.522 389.622 -72.1391 370.409 -27.1643C351.197 17.8099 337.78 78.375 278.313 144.937C218.847 211.499 113.333 284.057 59.9663 359.314C6.5991 434.57 5.37856 512.526 27.3361 547.306C49.2924 582.086 94.426 573.69 145.659 529.616C196.891 485.541 254.223 405.786 303.016 352.417C351.809 299.048 392.062 272.064 416.459 275.662C440.855 279.259 449.394 313.44 404.566 397.093C359.737 480.744 261.541 613.868 187.133 680.429C112.723 746.991 62.1013 746.991 30.0813 778.472C-1.93928 809.955 -15.3578 872.919 25.2019 882.214C65.7609 891.508 160.297 847.133 238.671 795.862C317.044 744.592 379.255 686.425 431.402 604.572C483.549 522.719 525.633 417.18 537.221 335.927C548.809 254.674 529.902 197.706 513.13 161.127C496.357 124.549 481.719 108.358 483.549 80.7737C485.379 53.1898 503.676 14.2118 530.512 -19.6685C557.348 -53.5494 592.723 -82.3326 594.248 -101.221C595.772 -120.111 563.446 -129.106 532.036 -132.403Z" fill="url(#paint0_linear_1988_133683)" fill-opacity="0.15"/>
<path fill-rule="evenodd" clip-rule="evenodd" d="M188.345 1019.69C218.237 982.855 278.022 924.821 340.833 877.945C403.645 831.071 469.484 795.357 553.108 752.202C636.73 709.047 738.137 658.452 782.03 597.068C825.922 535.684 812.3 463.512 785.057 383.527C757.813 303.541 716.948 215.745 699.164 135.016C681.38 54.2864 686.676 -19.3735 707.488 -68.8521C728.299 -118.332 764.624 -143.628 793.043 -141.92C821.461 -140.212 841.971 -111.497 846.891 -60.9021C851.81 -10.3071 841.137 62.168 859.26 150.117C877.383 238.066 924.302 341.488 936.789 437.47C949.276 533.452 927.33 621.993 865.275 688.585C803.22 755.177 701.056 799.821 593.216 869.389C485.377 938.956 371.861 1033.45 298.455 1074C225.049 1114.55 191.75 1101.16 175.101 1086.65C158.453 1072.14 158.453 1056.52 188.344 1019.69L188.345 1019.69Z" fill="url(#paint1_linear_1988_133683)" fill-opacity="0.15"/>
<path fill-rule="evenodd" clip-rule="evenodd" d="M1077.36 -252.507C1045.61 -208.172 1016.03 -142.911 1007.37 -50.3389C998.712 42.2329 1010.98 162.115 1019.27 249.367C1027.57 336.619 1031.9 391.241 999.073 471.753C966.245 552.267 896.26 658.671 821.946 742.731C747.632 826.79 668.99 888.505 619.207 961.924C569.423 1035.34 548.5 1120.47 582.771 1132.88C617.041 1145.3 706.508 1085 792.005 994.2C877.501 903.402 959.03 782.1 1048.86 676.76C1138.68 571.419 1236.81 482.04 1324.83 424.226C1412.85 366.413 1490.77 340.166 1565.09 238.728C1639.4 137.288 1710.11 -39.3438 1727.06 -132.625C1744.02 -225.906 1707.22 -235.838 1664.68 -206.399C1622.15 -176.961 1573.87 -108.152 1507.13 -19.8359C1440.39 68.4802 1355.19 176.303 1297.8 223.477C1240.41 270.649 1210.83 257.171 1202.53 197.584C1194.24 137.998 1207.22 32.3026 1215.88 -57.0769C1224.54 -146.457 1228.87 -219.522 1221.65 -264.567C1214.44 -309.611 1195.68 -326.636 1169.35 -323.444C1143.01 -320.252 1109.1 -296.843 1077.36 -252.507V-252.507Z" fill="url(#paint2_linear_1988_133683)" fill-opacity="0.15"/>
</g>
<defs>
<linearGradient id="paint0_linear_1988_133683" x1="243.408" y1="88.5091" x2="659.8" y2="298.12" gradientUnits="userSpaceOnUse">
<stop stop-color="#393885"/>
<stop offset="0.998" stop-color="white" stop-opacity="0"/>
</linearGradient>
<linearGradient id="paint1_linear_1988_133683" x1="481.838" y1="129.529" x2="1010.48" y2="413.967" gradientUnits="userSpaceOnUse">
<stop stop-color="#393885"/>
<stop offset="0.998" stop-color="white" stop-opacity="0"/>
</linearGradient>
<linearGradient id="paint2_linear_1988_133683" x1="1043.22" y1="-5.24598" x2="1737.52" y2="472.774" gradientUnits="userSpaceOnUse">
<stop stop-color="#393885"/>
<stop offset="0.998" stop-color="white" stop-opacity="0"/>
</linearGradient>
<clipPath id="clip0_1988_133683">
<rect width="1080" height="280" fill="white" transform="translate(0 -82)"/>
</clipPath>
</defs>
</svg>
