<svg width="201" height="45" viewBox="0 0 201 45" fill="none" xmlns="http://www.w3.org/2000/svg">
<g clip-path="url(#clip0_1292_146046)">
<path fill-rule="evenodd" clip-rule="evenodd" d="M19.6104 40.9516L19.6734 40.3881C16.8742 39.9245 14.3858 33.8585 13.981 31.0177C12.9276 23.6181 16.4454 16.7473 20.9958 11.7107C21.0523 11.6477 21.1362 11.5537 21.1936 11.4903L22.4484 10.2224C26.4316 7.07459 30.7885 5.22747 31.6859 4.2796C27.2619 -1.04136 15.1905 -0.0124495 7.48208 0.26492C5.93502 9.22779 3.90083 18.5824 2.08612 27.4647C-0.37918 39.531 -1.25296 44.9107 13.7004 44.926C14.0422 44.2286 13.6097 40.734 19.6109 40.9516H19.6104Z" fill="#E3E8F1"/>
<path fill-rule="evenodd" clip-rule="evenodd" d="M32.3717 4.46205C33.3848 6.09108 34.5336 7.07923 35.5417 8.96896C38.6507 14.7946 37.638 21.1213 35.0796 26.6215C32.6203 31.9096 25.7199 38.8929 19.6733 40.3881L19.6104 40.9516C23.036 45.923 34.9198 44.908 38.74 44.9265C45.02 44.957 43.4331 45.359 44.6796 39.1832C46.3605 30.8543 49.3958 17.4581 50.4437 10.2891C51.0239 6.32029 49.4227 3.39564 47.3098 1.83515C44.5259 -0.220809 41.3109 0.126018 37.4685 0.295959C36.816 1.25726 36.7836 1.94999 36.5637 3.09743L32.3712 4.46205H32.3717Z" fill="#E3E8F1"/>
<path fill-rule="evenodd" clip-rule="evenodd" d="M19.6733 40.3881C25.7199 38.8929 32.6203 31.9091 35.0796 26.6215C37.638 21.1209 38.6507 14.7946 35.5417 8.96894C34.5332 7.07921 33.3848 6.09106 32.3717 4.46203L31.6859 4.28052C30.7885 5.22793 26.4316 7.07505 22.4484 10.2234L21.1935 11.4912C21.1366 11.5542 21.0528 11.6486 20.9958 11.7116C16.4449 16.7482 12.9271 23.6186 13.981 31.0186C14.3852 33.8595 16.8742 39.925 19.6733 40.389V40.3881Z" fill="#C0C6D4"/>
<path d="M65.8605 33.4086C66.5124 33.4086 67.0766 33.5173 67.5533 33.7345C68.0369 33.9518 68.4084 34.2602 68.6677 34.6598C68.9271 35.0593 69.0568 35.5324 69.0568 36.0791C69.0568 36.6189 68.9271 37.092 68.6677 37.4985C68.4084 37.898 68.0369 38.2065 67.5533 38.4237C67.0766 38.634 66.5124 38.7392 65.8605 38.7392H64.3781V40.7683H62.6748V33.4086H65.8605ZM65.7659 37.3513C66.2776 37.3513 66.6666 37.2427 66.9329 37.0254C67.1993 36.8011 67.3325 36.4857 67.3325 36.0791C67.3325 35.6656 67.1993 35.3502 66.9329 35.1329C66.6666 34.9086 66.2776 34.7964 65.7659 34.7964H64.3781V37.3513H65.7659Z" fill="#E3E8F1"/>
<path d="M72.8384 40.8525C72.2426 40.8525 71.7064 40.7298 71.2298 40.4845C70.7601 40.2321 70.3922 39.8852 70.1258 39.4436C69.8595 39.002 69.7263 38.5008 69.7263 37.9401C69.7263 37.3794 69.8595 36.8782 70.1258 36.4366C70.3922 35.995 70.7601 35.6516 71.2298 35.4063C71.7064 35.1539 72.2426 35.0278 72.8384 35.0278C73.4342 35.0278 73.9669 35.1539 74.4365 35.4063C74.9061 35.6516 75.2741 35.995 75.5405 36.4366C75.8068 36.8782 75.94 37.3794 75.94 37.9401C75.94 38.5008 75.8068 39.002 75.5405 39.4436C75.2741 39.8852 74.9061 40.2321 74.4365 40.4845C73.9669 40.7298 73.4342 40.8525 72.8384 40.8525ZM72.8384 39.5067C73.2589 39.5067 73.6024 39.3665 73.8688 39.0861C74.1421 38.7987 74.2788 38.4167 74.2788 37.9401C74.2788 37.4635 74.1421 37.085 73.8688 36.8046C73.6024 36.5172 73.2589 36.3735 72.8384 36.3735C72.4178 36.3735 72.0709 36.5172 71.7975 36.8046C71.5242 37.085 71.3875 37.4635 71.3875 37.9401C71.3875 38.4167 71.5242 38.7987 71.7975 39.0861C72.0709 39.3665 72.4178 39.5067 72.8384 39.5067Z" fill="#E3E8F1"/>
<path d="M77.0363 32.967H78.6765V40.7683H77.0363V32.967Z" fill="#E3E8F1"/>
<path d="M82.4802 35.0278C83.3564 35.0278 84.0293 35.238 84.4989 35.6586C84.9685 36.0721 85.2033 36.6995 85.2033 37.5406V40.7683H83.6683V40.0639C83.3599 40.5896 82.7851 40.8525 81.944 40.8525C81.5094 40.8525 81.1309 40.7789 80.8085 40.6317C80.4931 40.4845 80.2513 40.2812 80.0831 40.0219C79.9148 39.7625 79.8307 39.4681 79.8307 39.1387C79.8307 38.613 80.027 38.1994 80.4195 37.898C80.819 37.5967 81.4323 37.446 82.2594 37.446H83.5632C83.5632 37.0885 83.4545 36.8151 83.2372 36.6259C83.0199 36.4296 82.694 36.3315 82.2594 36.3315C81.958 36.3315 81.6601 36.3805 81.3658 36.4787C81.0784 36.5698 80.833 36.696 80.6298 36.8572L80.041 35.7112C80.3494 35.4939 80.7174 35.3256 81.145 35.2065C81.5795 35.0873 82.0246 35.0278 82.4802 35.0278ZM82.3541 39.7485C82.6344 39.7485 82.8833 39.6854 83.1005 39.5592C83.3178 39.4261 83.472 39.2333 83.5632 38.981V38.4027H82.4382C81.7653 38.4027 81.4288 38.6235 81.4288 39.0651C81.4288 39.2754 81.5094 39.4436 81.6707 39.5698C81.8389 39.6889 82.0667 39.7485 82.3541 39.7485Z" fill="#E3E8F1"/>
<path d="M92.9667 33.4086C93.6186 33.4086 94.1828 33.5173 94.6595 33.7345C95.1431 33.9518 95.5146 34.2602 95.7739 34.6598C96.0333 35.0593 96.1629 35.5324 96.1629 36.0791C96.1629 36.6189 96.0333 37.092 95.7739 37.4985C95.5146 37.898 95.1431 38.2065 94.6595 38.4237C94.1828 38.634 93.6186 38.7392 92.9667 38.7392H91.4842V40.7683H89.781V33.4086H92.9667ZM92.8721 37.3513C93.3838 37.3513 93.7728 37.2427 94.0391 37.0254C94.3055 36.8011 94.4387 36.4857 94.4387 36.0791C94.4387 35.6656 94.3055 35.3502 94.0391 35.1329C93.7728 34.9086 93.3838 34.7964 92.8721 34.7964H91.4842V37.3513H92.8721Z" fill="#E3E8F1"/>
<path d="M99.9446 40.8525C99.3488 40.8525 98.8126 40.7298 98.336 40.4845C97.8663 40.2321 97.4983 39.8852 97.232 39.4436C96.9656 39.002 96.8325 38.5008 96.8325 37.9401C96.8325 37.3794 96.9656 36.8782 97.232 36.4366C97.4983 35.995 97.8663 35.6516 98.336 35.4063C98.8126 35.1539 99.3488 35.0278 99.9446 35.0278C100.54 35.0278 101.073 35.1539 101.543 35.4063C102.012 35.6516 102.38 35.995 102.647 36.4366C102.913 36.8782 103.046 37.3794 103.046 37.9401C103.046 38.5008 102.913 39.002 102.647 39.4436C102.38 39.8852 102.012 40.2321 101.543 40.4845C101.073 40.7298 100.54 40.8525 99.9446 40.8525ZM99.9446 39.5067C100.365 39.5067 100.709 39.3665 100.975 39.0861C101.248 38.7987 101.385 38.4167 101.385 37.9401C101.385 37.4635 101.248 37.085 100.975 36.8046C100.709 36.5172 100.365 36.3735 99.9446 36.3735C99.524 36.3735 99.1771 36.5172 98.9037 36.8046C98.6303 37.085 98.4937 37.4635 98.4937 37.9401C98.4937 38.4167 98.6303 38.7987 98.9037 39.0861C99.1771 39.3665 99.524 39.5067 99.9446 39.5067Z" fill="#E3E8F1"/>
<path d="M104.143 32.967H105.783V40.7683H104.143V32.967Z" fill="#E3E8F1"/>
<path d="M107.305 35.1119H108.945V40.7683H107.305V35.1119ZM108.125 34.3233C107.824 34.3233 107.578 34.2357 107.389 34.0605C107.2 33.8852 107.105 33.668 107.105 33.4086C107.105 33.1493 107.2 32.932 107.389 32.7567C107.578 32.5815 107.824 32.4939 108.125 32.4939C108.426 32.4939 108.672 32.578 108.861 32.7462C109.05 32.9145 109.145 33.1247 109.145 33.3771C109.145 33.6504 109.05 33.8782 108.861 34.0605C108.672 34.2357 108.426 34.3233 108.125 34.3233Z" fill="#E3E8F1"/>
<path d="M114.116 40.495C113.954 40.6141 113.755 40.7053 113.516 40.7683C113.285 40.8244 113.04 40.8525 112.78 40.8525C112.107 40.8525 111.585 40.6807 111.214 40.3373C110.849 39.9938 110.667 39.4892 110.667 38.8233V36.4997H109.794V35.238H110.667V33.8607H112.307V35.238H113.716V36.4997H112.307V38.8022C112.307 39.0406 112.367 39.2263 112.486 39.3595C112.612 39.4857 112.787 39.5487 113.012 39.5487C113.271 39.5487 113.492 39.4786 113.674 39.3385L114.116 40.495Z" fill="#E3E8F1"/>
<path d="M115.036 35.1119H116.676V40.7683H115.036V35.1119ZM115.856 34.3233C115.555 34.3233 115.31 34.2357 115.12 34.0605C114.931 33.8852 114.837 33.668 114.837 33.4086C114.837 33.1493 114.931 32.932 115.12 32.7567C115.31 32.5815 115.555 32.4939 115.856 32.4939C116.158 32.4939 116.403 32.578 116.592 32.7462C116.782 32.9145 116.876 33.1247 116.876 33.3771C116.876 33.6504 116.782 33.8782 116.592 34.0605C116.403 34.2357 116.158 34.3233 115.856 34.3233Z" fill="#E3E8F1"/>
<path d="M120.627 38.5499L119.839 39.3279V40.7683H118.199V32.967H119.839V37.3829L122.236 35.1119H124.192L121.837 37.509L124.402 40.7683H122.415L120.627 38.5499Z" fill="#E3E8F1"/>
<path d="M133.206 36.9728H134.762V39.9588C134.362 40.2602 133.9 40.4915 133.374 40.6527C132.848 40.8139 132.319 40.8945 131.786 40.8945C131.022 40.8945 130.336 40.7333 129.726 40.4109C129.116 40.0814 128.636 39.6293 128.285 39.0546C127.942 38.4728 127.77 37.8174 127.77 37.0885C127.77 36.3595 127.942 35.7077 128.285 35.1329C128.636 34.5511 129.119 34.099 129.736 33.7766C130.353 33.4472 131.047 33.2824 131.818 33.2824C132.463 33.2824 133.048 33.3911 133.574 33.6084C134.1 33.8257 134.541 34.1411 134.899 34.5546L133.805 35.564C133.279 35.0102 132.645 34.7334 131.902 34.7334C131.433 34.7334 131.015 34.8315 130.651 35.0278C130.286 35.224 130.003 35.5009 129.799 35.8584C129.596 36.2158 129.494 36.6259 129.494 37.0885C129.494 37.5441 129.596 37.9506 129.799 38.3081C130.003 38.6656 130.283 38.9459 130.64 39.1492C131.005 39.3455 131.418 39.4436 131.881 39.4436C132.372 39.4436 132.813 39.3385 133.206 39.1282V36.9728Z" fill="#E3E8F1"/>
<path d="M138.51 35.0278C139.386 35.0278 140.059 35.238 140.529 35.6586C140.998 36.0721 141.233 36.6995 141.233 37.5406V40.7683H139.698V40.0639C139.39 40.5896 138.815 40.8525 137.974 40.8525C137.539 40.8525 137.161 40.7789 136.838 40.6317C136.523 40.4845 136.281 40.2812 136.113 40.0219C135.945 39.7625 135.86 39.4681 135.86 39.1387C135.86 38.613 136.057 38.1994 136.449 37.898C136.849 37.5967 137.462 37.446 138.289 37.446H139.593C139.593 37.0885 139.484 36.8151 139.267 36.6259C139.05 36.4296 138.724 36.3315 138.289 36.3315C137.988 36.3315 137.69 36.3805 137.395 36.4787C137.108 36.5698 136.863 36.696 136.66 36.8572L136.071 35.7112C136.379 35.4939 136.747 35.3256 137.175 35.2065C137.609 35.0873 138.054 35.0278 138.51 35.0278ZM138.384 39.7485C138.664 39.7485 138.913 39.6854 139.13 39.5592C139.348 39.4261 139.502 39.2333 139.593 38.981V38.4027H138.468C137.795 38.4027 137.459 38.6235 137.459 39.0651C137.459 39.2754 137.539 39.4436 137.7 39.5698C137.869 39.6889 138.096 39.7485 138.384 39.7485Z" fill="#E3E8F1"/>
<path d="M148.229 35.1119L145.674 41.1153C145.415 41.7672 145.093 42.2263 144.707 42.4926C144.329 42.759 143.869 42.8922 143.33 42.8922C143.035 42.8922 142.744 42.8466 142.457 42.7555C142.17 42.6644 141.935 42.5382 141.753 42.377L142.352 41.2099C142.478 41.3221 142.622 41.4097 142.783 41.4728C142.951 41.5359 143.116 41.5674 143.277 41.5674C143.501 41.5674 143.684 41.5113 143.824 41.3992C143.964 41.294 144.09 41.1153 144.202 40.863L144.223 40.8104L141.774 35.1119H143.466L145.054 38.9494L146.652 35.1119H148.229Z" fill="#E3E8F1"/>
<path d="M150.995 35.0278C151.871 35.0278 152.544 35.238 153.014 35.6586C153.484 36.0721 153.718 36.6995 153.718 37.5406V40.7683H152.183V40.0639C151.875 40.5896 151.3 40.8525 150.459 40.8525C150.024 40.8525 149.646 40.7789 149.324 40.6317C149.008 40.4845 148.766 40.2812 148.598 40.0219C148.43 39.7625 148.346 39.4681 148.346 39.1387C148.346 38.613 148.542 38.1994 148.934 37.898C149.334 37.5967 149.947 37.446 150.774 37.446H152.078C152.078 37.0885 151.97 36.8151 151.752 36.6259C151.535 36.4296 151.209 36.3315 150.774 36.3315C150.473 36.3315 150.175 36.3805 149.881 36.4787C149.593 36.5698 149.348 36.696 149.145 36.8572L148.556 35.7112C148.864 35.4939 149.232 35.3256 149.66 35.2065C150.095 35.0873 150.54 35.0278 150.995 35.0278ZM150.869 39.7485C151.149 39.7485 151.398 39.6854 151.616 39.5592C151.833 39.4261 151.987 39.2333 152.078 38.981V38.4027H150.953C150.28 38.4027 149.944 38.6235 149.944 39.0651C149.944 39.2754 150.024 39.4436 150.186 39.5698C150.354 39.6889 150.582 39.7485 150.869 39.7485Z" fill="#E3E8F1"/>
<path d="M163.7 36.9413C164.121 37.0745 164.45 37.2988 164.688 37.6142C164.927 37.9226 165.046 38.3046 165.046 38.7602C165.046 39.405 164.794 39.9027 164.289 40.2532C163.791 40.5966 163.062 40.7683 162.102 40.7683H158.296V33.4086H161.892C162.789 33.4086 163.476 33.5803 163.952 33.9238C164.436 34.2672 164.678 34.7334 164.678 35.3221C164.678 35.6796 164.59 35.9985 164.415 36.2789C164.247 36.5593 164.009 36.7801 163.7 36.9413ZM159.989 34.6913V36.4261H161.681C162.102 36.4261 162.421 36.3525 162.638 36.2053C162.856 36.0581 162.964 35.8408 162.964 35.5534C162.964 35.2661 162.856 35.0523 162.638 34.9121C162.421 34.7649 162.102 34.6913 161.681 34.6913H159.989ZM161.976 39.4857C162.424 39.4857 162.761 39.4121 162.985 39.2649C163.216 39.1177 163.332 38.8899 163.332 38.5815C163.332 37.9716 162.88 37.6667 161.976 37.6667H159.989V39.4857H161.976Z" fill="#E3E8F1"/>
<path d="M168.501 35.0278C169.377 35.0278 170.05 35.238 170.52 35.6586C170.99 36.0721 171.224 36.6995 171.224 37.5406V40.7683H169.689V40.0639C169.381 40.5896 168.806 40.8525 167.965 40.8525C167.531 40.8525 167.152 40.7789 166.83 40.6317C166.514 40.4845 166.272 40.2812 166.104 40.0219C165.936 39.7625 165.852 39.4681 165.852 39.1387C165.852 38.613 166.048 38.1994 166.441 37.898C166.84 37.5967 167.453 37.446 168.281 37.446H169.584C169.584 37.0885 169.476 36.8151 169.258 36.6259C169.041 36.4296 168.715 36.3315 168.281 36.3315C167.979 36.3315 167.681 36.3805 167.387 36.4787C167.099 36.5698 166.854 36.696 166.651 36.8572L166.062 35.7112C166.37 35.4939 166.738 35.3256 167.166 35.2065C167.601 35.0873 168.046 35.0278 168.501 35.0278ZM168.375 39.7485C168.656 39.7485 168.904 39.6854 169.122 39.5592C169.339 39.4261 169.493 39.2333 169.584 38.981V38.4027H168.459C167.786 38.4027 167.45 38.6235 167.45 39.0651C167.45 39.2754 167.531 39.4436 167.692 39.5698C167.86 39.6889 168.088 39.7485 168.375 39.7485Z" fill="#E3E8F1"/>
<path d="M174.275 35.8584C174.472 35.585 174.735 35.3782 175.064 35.238C175.4 35.0978 175.786 35.0278 176.22 35.0278V36.5418C176.038 36.5277 175.916 36.5207 175.853 36.5207C175.383 36.5207 175.015 36.6539 174.749 36.9203C174.482 37.1796 174.349 37.5721 174.349 38.0978V40.7683H172.709V35.1119H174.275V35.8584Z" fill="#E3E8F1"/>
<path d="M182.935 35.1119V40.7683H181.379V40.0955C181.162 40.3408 180.903 40.53 180.601 40.6632C180.3 40.7894 179.974 40.8525 179.623 40.8525C178.88 40.8525 178.292 40.6387 177.857 40.2111C177.423 39.7835 177.205 39.1492 177.205 38.3081V35.1119H178.845V38.0663C178.845 38.9775 179.227 39.4331 179.991 39.4331C180.384 39.4331 180.699 39.3069 180.938 39.0546C181.176 38.7952 181.295 38.4132 181.295 37.9086V35.1119H182.935Z" fill="#E3E8F1"/>
<path d="M72.232 4.30028C74.1875 4.30028 75.8803 4.62622 77.3102 5.27808C78.7611 5.92994 79.8756 6.85517 80.6536 8.05375C81.4316 9.25234 81.8206 10.6717 81.8206 12.3119C81.8206 13.931 81.4316 15.3504 80.6536 16.57C79.8756 17.7686 78.7611 18.6938 77.3102 19.3457C75.8803 19.9765 74.1875 20.292 72.232 20.292H67.7846V26.3795H62.6748V4.30028H72.232ZM71.9481 16.1284C73.4831 16.1284 74.6502 15.8025 75.4492 15.1506C76.2483 14.4778 76.6478 13.5315 76.6478 12.3119C76.6478 11.0712 76.2483 10.125 75.4492 9.47313C74.6502 8.80024 73.4831 8.4638 71.9481 8.4638H67.7846V16.1284H71.9481Z" fill="#E3E8F1"/>
<path d="M93.1656 26.6318C91.3782 26.6318 89.7696 26.2639 88.3397 25.5279C86.9308 24.7709 85.8269 23.73 85.0278 22.4052C84.2287 21.0805 83.8292 19.577 83.8292 17.8948C83.8292 16.2126 84.2287 14.7091 85.0278 13.3843C85.8269 12.0596 86.9308 11.0292 88.3397 10.2932C89.7696 9.53621 91.3782 9.15771 93.1656 9.15771C94.9529 9.15771 96.5511 9.53621 97.9599 10.2932C99.3688 11.0292 100.473 12.0596 101.272 13.3843C102.071 14.7091 102.47 16.2126 102.47 17.8948C102.47 19.577 102.071 21.0805 101.272 22.4052C100.473 23.73 99.3688 24.7709 97.9599 25.5279C96.5511 26.2639 94.9529 26.6318 93.1656 26.6318ZM93.1656 22.5945C94.4272 22.5945 95.4576 22.1739 96.2567 21.3328C97.0767 20.4707 97.4868 19.3247 97.4868 17.8948C97.4868 16.4649 97.0767 15.3294 96.2567 14.4883C95.4576 13.6261 94.4272 13.1951 93.1656 13.1951C91.9039 13.1951 90.863 13.6261 90.0429 14.4883C89.2229 15.3294 88.8128 16.4649 88.8128 17.8948C88.8128 19.3247 89.2229 20.4707 90.0429 21.3328C90.863 22.1739 91.9039 22.5945 93.1656 22.5945Z" fill="#E3E8F1"/>
<path d="M105.759 2.97553H110.68V26.3795H105.759V2.97553Z" fill="#E3E8F1"/>
<path d="M122.091 9.15771C124.72 9.15771 126.738 9.78855 128.147 11.0502C129.556 12.2909 130.26 14.1729 130.26 16.6962V26.3795H125.655V24.2662C124.73 25.8433 123.006 26.6318 120.482 26.6318C119.179 26.6318 118.043 26.411 117.076 25.9695C116.13 25.5279 115.404 24.9181 114.9 24.14C114.395 23.362 114.143 22.4788 114.143 21.4905C114.143 19.9134 114.731 18.6728 115.909 17.7686C117.107 16.8644 118.947 16.4123 121.429 16.4123H125.34C125.34 15.3399 125.014 14.5198 124.362 13.9521C123.71 13.3633 122.732 13.0689 121.429 13.0689C120.524 13.0689 119.631 13.2161 118.748 13.5105C117.886 13.7838 117.15 14.1623 116.54 14.646L114.773 11.2079C115.699 10.5561 116.803 10.0514 118.085 9.69392C119.389 9.33645 120.724 9.15771 122.091 9.15771ZM121.713 23.32C122.554 23.32 123.3 23.1307 123.952 22.7522C124.604 22.3527 125.067 21.7744 125.34 21.0174V19.2826H121.965C119.946 19.2826 118.937 19.945 118.937 21.2697C118.937 21.9006 119.179 22.4052 119.662 22.7837C120.167 23.1412 120.85 23.32 121.713 23.32Z" fill="#E3E8F1"/>
<path d="M144.618 4.30028C146.573 4.30028 148.266 4.62622 149.696 5.27808C151.147 5.92994 152.261 6.85517 153.039 8.05375C153.817 9.25234 154.206 10.6717 154.206 12.3119C154.206 13.931 153.817 15.3504 153.039 16.57C152.261 17.7686 151.147 18.6938 149.696 19.3457C148.266 19.9765 146.573 20.292 144.618 20.292H140.17V26.3795H135.061V4.30028H144.618ZM144.334 16.1284C145.869 16.1284 147.036 15.8025 147.835 15.1506C148.634 14.4778 149.034 13.5315 149.034 12.3119C149.034 11.0712 148.634 10.125 147.835 9.47313C147.036 8.80024 145.869 8.4638 144.334 8.4638H140.17V16.1284H144.334Z" fill="#E3E8F1"/>
<path d="M165.551 26.6318C163.764 26.6318 162.155 26.2639 160.726 25.5279C159.317 24.7709 158.213 23.73 157.414 22.4052C156.615 21.0805 156.215 19.577 156.215 17.8948C156.215 16.2126 156.615 14.7091 157.414 13.3843C158.213 12.0596 159.317 11.0292 160.726 10.2932C162.155 9.53621 163.764 9.15771 165.551 9.15771C167.339 9.15771 168.937 9.53621 170.346 10.2932C171.755 11.0292 172.859 12.0596 173.658 13.3843C174.457 14.7091 174.856 16.2126 174.856 17.8948C174.856 19.577 174.457 21.0805 173.658 22.4052C172.859 23.73 171.755 24.7709 170.346 25.5279C168.937 26.2639 167.339 26.6318 165.551 26.6318ZM165.551 22.5945C166.813 22.5945 167.843 22.1739 168.643 21.3328C169.463 20.4707 169.873 19.3247 169.873 17.8948C169.873 16.4649 169.463 15.3294 168.643 14.4883C167.843 13.6261 166.813 13.1951 165.551 13.1951C164.29 13.1951 163.249 13.6261 162.429 14.4883C161.609 15.3294 161.199 16.4649 161.199 17.8948C161.199 19.3247 161.609 20.4707 162.429 21.3328C163.249 22.1739 164.29 22.5945 165.551 22.5945Z" fill="#E3E8F1"/>
<path d="M178.145 2.97553H183.066V26.3795H178.145V2.97553Z" fill="#E3E8F1"/>
<path d="M187.632 9.41005H192.553V26.3795H187.632V9.41005ZM190.093 7.04442C189.188 7.04442 188.452 6.78157 187.885 6.25587C187.317 5.73018 187.033 5.07831 187.033 4.30028C187.033 3.52225 187.317 2.87039 187.885 2.3447C188.452 1.819 189.188 1.55615 190.093 1.55615C190.997 1.55615 191.733 1.80849 192.301 2.31316C192.868 2.81782 193.152 3.44866 193.152 4.20566C193.152 5.02575 192.868 5.70915 192.301 6.25587C191.733 6.78157 190.997 7.04442 190.093 7.04442Z" fill="#E3E8F1"/>
</g>
<defs>
<clipPath id="clip0_1292_146046">
<rect width="199.65" height="45" fill="white" transform="translate(0.674805)"/>
</clipPath>
</defs>
</svg>
