<svg width="156" height="156" viewBox="0 0 156 156" fill="none" xmlns="http://www.w3.org/2000/svg">
<rect width="156" height="156" fill="white"/>
<path d="M89.0416 8.95114C99.095 10.6195 108.667 14.4476 117.099 20.1717C125.53 25.8958 132.62 33.3797 137.881 42.1079C143.142 50.8361 146.447 60.6011 147.571 70.7299C148.694 80.8588 147.608 91.1107 144.387 100.779C141.167 110.448 135.888 119.304 128.916 126.736C121.943 134.168 113.442 140 103.998 143.831C94.5546 147.661 84.3928 149.398 74.2129 148.923C64.0331 148.448 54.0773 145.772 45.0314 141.078L77.5 78.5L89.0416 8.95114Z" fill="#393885"/>
<path d="M45.4695 141.304C37.222 137.097 29.8837 131.308 23.8737 124.265C17.8637 117.223 13.2997 109.066 10.4421 100.26C7.58458 91.4537 6.48952 82.1709 7.21947 72.9415C7.94942 63.7121 10.4901 54.7169 14.6964 46.4694L77.5 78.5L45.4695 141.304Z" fill="#1CA7EC"/>
<path d="M14.6373 46.5855C21.377 33.3102 32.1464 22.5093 45.4019 15.7309L77.5 78.5L14.6373 46.5855Z" fill="#FB3B6F"/>
<path d="M45.6791 15.5899C58.9644 8.87001 74.0361 6.52844 88.734 8.90081L77.5 78.5L45.6791 15.5899Z" fill="#C0C6D4"/>
<path d="M103.053 85.8152L102.448 85.6689L102.68 83.5605H104.978V84.1887H103.308L103.199 85.164C103.259 85.1277 103.345 85.0914 103.458 85.055C103.572 85.0168 103.701 84.9977 103.845 84.9977C104.044 84.9977 104.222 85.0302 104.378 85.0952C104.535 85.1583 104.668 85.2501 104.777 85.3706C104.888 85.4911 104.971 85.6383 105.027 85.8123C105.084 85.9845 105.113 86.1795 105.113 86.3976C105.113 86.5888 105.084 86.7686 105.027 86.9369C104.971 87.1032 104.886 87.2515 104.771 87.3815C104.657 87.5096 104.512 87.611 104.338 87.6856C104.164 87.7582 103.96 87.7946 103.724 87.7946C103.546 87.7946 103.375 87.7688 103.211 87.7171C103.048 87.6636 102.902 87.5861 102.772 87.4848C102.642 87.3815 102.538 87.2553 102.459 87.1061C102.383 86.9569 102.341 86.7858 102.333 86.5926H103.082C103.095 86.7208 103.13 86.8298 103.185 86.9196C103.24 87.0095 103.313 87.0784 103.403 87.1262C103.495 87.174 103.601 87.1979 103.721 87.1979C103.83 87.1979 103.924 87.1778 104.003 87.1377C104.083 87.0956 104.149 87.0373 104.201 86.9627C104.252 86.8881 104.29 86.8001 104.315 86.6988C104.34 86.5974 104.353 86.4865 104.353 86.366C104.353 86.2493 104.338 86.1432 104.31 86.0476C104.281 85.95 104.237 85.8659 104.178 85.7951C104.118 85.7244 104.044 85.6699 103.954 85.6316C103.866 85.5934 103.763 85.5742 103.644 85.5742C103.485 85.5742 103.363 85.5982 103.277 85.646C103.193 85.6938 103.118 85.7502 103.053 85.8152Z" fill="white"/>
<path d="M106.409 85.8152L105.804 85.6689L106.036 83.5605H108.334V84.1887H106.665L106.556 85.164C106.615 85.1277 106.701 85.0914 106.814 85.055C106.929 85.0168 107.058 84.9977 107.201 84.9977C107.4 84.9977 107.578 85.0302 107.735 85.0952C107.891 85.1583 108.024 85.2501 108.133 85.3706C108.244 85.4911 108.328 85.6383 108.383 85.8123C108.44 85.9845 108.469 86.1795 108.469 86.3976C108.469 86.5888 108.44 86.7686 108.383 86.9369C108.328 87.1032 108.242 87.2515 108.128 87.3815C108.013 87.5096 107.869 87.611 107.695 87.6856C107.52 87.7582 107.316 87.7946 107.081 87.7946C106.903 87.7946 106.732 87.7688 106.567 87.7171C106.405 87.6636 106.258 87.5861 106.128 87.4848C105.998 87.3815 105.894 87.2553 105.816 87.1061C105.739 86.9569 105.697 86.7858 105.689 86.5926H106.438C106.451 86.7208 106.486 86.8298 106.541 86.9196C106.597 87.0095 106.669 87.0784 106.759 87.1262C106.851 87.174 106.957 87.1979 107.078 87.1979C107.187 87.1979 107.28 87.1778 107.359 87.1377C107.439 87.0956 107.505 87.0373 107.557 86.9627C107.608 86.8881 107.647 86.8001 107.672 86.6988C107.696 86.5974 107.709 86.4865 107.709 86.366C107.709 86.2493 107.695 86.1432 107.666 86.0476C107.637 85.95 107.593 85.8659 107.534 85.7951C107.475 85.7244 107.4 85.6699 107.31 85.6316C107.222 85.5934 107.119 85.5742 107 85.5742C106.842 85.5742 106.719 85.5982 106.633 85.646C106.549 85.6938 106.474 85.7502 106.409 85.8152Z" fill="white"/>
<path d="M108.994 84.5846V84.3637C108.994 84.2049 109.028 84.0606 109.097 83.9305C109.166 83.8005 109.267 83.6962 109.398 83.6178C109.532 83.5394 109.695 83.5002 109.886 83.5002C110.081 83.5002 110.245 83.5394 110.377 83.6178C110.511 83.6962 110.611 83.8005 110.678 83.9305C110.747 84.0606 110.781 84.2049 110.781 84.3637V84.5846C110.781 84.7395 110.747 84.8819 110.678 85.012C110.611 85.142 110.512 85.2463 110.38 85.3247C110.248 85.4031 110.085 85.4423 109.892 85.4423C109.699 85.4423 109.535 85.4031 109.401 85.3247C109.267 85.2463 109.166 85.142 109.097 85.012C109.028 84.8819 108.994 84.7395 108.994 84.5846ZM109.508 84.3637V84.5846C109.508 84.6572 109.521 84.7261 109.548 84.7911C109.576 84.8542 109.619 84.9059 109.677 84.946C109.734 84.9862 109.806 85.0063 109.892 85.0063C109.978 85.0063 110.048 84.9862 110.101 84.946C110.157 84.9059 110.198 84.8542 110.225 84.7911C110.253 84.7261 110.268 84.6572 110.268 84.5846V84.3637C110.268 84.2891 110.253 84.2193 110.225 84.1543C110.198 84.0892 110.156 84.0367 110.098 83.9965C110.043 83.9563 109.972 83.9362 109.886 83.9362C109.802 83.9362 109.731 83.9563 109.674 83.9965C109.618 84.0367 109.576 84.0892 109.548 84.1543C109.521 84.2193 109.508 84.2891 109.508 84.3637ZM110.999 86.934V86.7131C110.999 86.5563 111.034 86.4129 111.102 86.2828C111.173 86.1528 111.276 86.0485 111.409 85.9701C111.543 85.8917 111.705 85.8525 111.894 85.8525C112.091 85.8525 112.256 85.8917 112.388 85.9701C112.52 86.0485 112.619 86.1528 112.686 86.2828C112.755 86.4129 112.789 86.5563 112.789 86.7131V86.934C112.789 87.0908 112.755 87.2342 112.686 87.3643C112.619 87.4943 112.52 87.5986 112.388 87.677C112.258 87.7554 112.096 87.7946 111.903 87.7946C111.71 87.7946 111.545 87.7554 111.409 87.677C111.276 87.5986 111.173 87.4943 111.102 87.3643C111.034 87.2342 110.999 87.0908 110.999 86.934ZM111.516 86.7131V86.934C111.516 87.0086 111.531 87.0784 111.561 87.1434C111.592 87.2065 111.636 87.2581 111.693 87.2983C111.753 87.3385 111.822 87.3586 111.9 87.3586C111.996 87.3586 112.071 87.3385 112.127 87.2983C112.182 87.2581 112.221 87.2065 112.244 87.1434C112.267 87.0784 112.279 87.0086 112.279 86.934V86.7131C112.279 86.6385 112.264 86.5697 112.236 86.5066C112.207 86.4415 112.164 86.3889 112.107 86.3488C112.051 86.3086 111.98 86.2885 111.894 86.2885C111.81 86.2885 111.739 86.3086 111.682 86.3488C111.626 86.3889 111.584 86.4415 111.556 86.5066C111.529 86.5697 111.516 86.6385 111.516 86.7131ZM112.084 84.1571L110.044 87.4217L109.668 87.2122L111.708 83.9477L112.084 84.1571Z" fill="white"/>
<path d="M33.9117 91.6403V92.237H31.0832V91.7264L32.4401 90.2605C32.5816 90.0999 32.6935 89.9602 32.7757 89.8417C32.8579 89.7231 32.9163 89.616 32.9507 89.5204C32.987 89.4229 33.0052 89.3301 33.0052 89.2421C33.0052 89.114 32.9822 89.0021 32.9363 88.9065C32.8904 88.809 32.8235 88.7334 32.7355 88.6799C32.6495 88.6263 32.5433 88.5995 32.4171 88.5995C32.2775 88.5995 32.158 88.6321 32.0585 88.6971C31.961 88.7602 31.8864 88.8482 31.8348 88.961C31.7851 89.0738 31.7602 89.2029 31.7602 89.3483H31C31 89.1016 31.0574 88.8769 31.1721 88.6741C31.2869 88.4695 31.4513 88.306 31.6655 88.1836C31.8797 88.0612 32.1341 88 32.4286 88C32.7155 88 32.9583 88.0478 33.1572 88.1434C33.3561 88.2371 33.5072 88.371 33.6105 88.545C33.7137 88.7191 33.7654 88.9266 33.7654 89.1675C33.7654 89.3014 33.7434 89.4334 33.6994 89.5634C33.6554 89.6935 33.5933 89.8226 33.5129 89.9507C33.4345 90.0769 33.3408 90.205 33.2318 90.3351C33.1228 90.4651 33.0014 90.598 32.8675 90.7338L32.0528 91.6403H33.9117Z" fill="white"/>
<path d="M35.1911 90.315L34.5858 90.1687L34.8182 88.0602H37.116V88.6885H35.4464L35.3374 89.6638C35.3967 89.6275 35.4827 89.5911 35.5956 89.5548C35.7103 89.5166 35.8394 89.4974 35.9828 89.4974C36.1817 89.4974 36.3596 89.5299 36.5164 89.595C36.6732 89.6581 36.8062 89.7499 36.9152 89.8704C37.0261 89.9908 37.1093 90.1381 37.1647 90.3121C37.2221 90.4843 37.2508 90.6793 37.2508 90.8973C37.2508 91.0886 37.2221 91.2684 37.1647 91.4366C37.1093 91.603 37.0242 91.7512 36.9094 91.8813C36.7947 92.0094 36.6503 92.1108 36.4763 92.1854C36.3022 92.258 36.0976 92.2944 35.8624 92.2944C35.6845 92.2944 35.5133 92.2686 35.3489 92.2169C35.1863 92.1634 35.04 92.0859 34.91 91.9846C34.7799 91.8813 34.6757 91.7551 34.5973 91.6059C34.5208 91.4567 34.4787 91.2856 34.4711 91.0924H35.2198C35.2332 91.2205 35.2676 91.3295 35.3231 91.4194C35.3785 91.5093 35.4512 91.5782 35.5411 91.626C35.6329 91.6738 35.739 91.6977 35.8595 91.6977C35.9685 91.6977 36.0622 91.6776 36.1406 91.6375C36.2209 91.5954 36.2869 91.537 36.3386 91.4625C36.3902 91.3879 36.4284 91.2999 36.4533 91.1985C36.4782 91.0972 36.4906 90.9863 36.4906 90.8658C36.4906 90.7491 36.4763 90.643 36.4476 90.5474C36.4189 90.4498 36.3749 90.3657 36.3156 90.2949C36.2563 90.2242 36.1817 90.1697 36.0919 90.1314C36.0039 90.0932 35.9006 90.074 35.782 90.074C35.6233 90.074 35.5009 90.0979 35.4149 90.1458C35.3307 90.1936 35.2561 90.25 35.1911 90.315Z" fill="white"/>
<path d="M37.7758 89.0844V88.8635C37.7758 88.7047 37.8102 88.5603 37.879 88.4303C37.9479 88.3003 38.0483 88.196 38.1802 88.1176C38.3141 88.0392 38.4767 88 38.6679 88C38.863 88 39.0265 88.0392 39.1584 88.1176C39.2923 88.196 39.3927 88.3003 39.4597 88.4303C39.5285 88.5603 39.5629 88.7047 39.5629 88.8635V89.0844C39.5629 89.2393 39.5285 89.3817 39.4597 89.5118C39.3927 89.6418 39.2933 89.7461 39.1613 89.8245C39.0294 89.9029 38.8668 89.9421 38.6736 89.9421C38.4805 89.9421 38.317 89.9029 38.1831 89.8245C38.0492 89.7461 37.9479 89.6418 37.879 89.5118C37.8102 89.3817 37.7758 89.2393 37.7758 89.0844ZM38.2892 88.8635V89.0844C38.2892 89.157 38.3026 89.2259 38.3294 89.2909C38.3581 89.354 38.4011 89.4056 38.4585 89.4458C38.5159 89.486 38.5876 89.506 38.6736 89.506C38.7597 89.506 38.8295 89.486 38.8831 89.4458C38.9385 89.4056 38.9796 89.354 39.0064 89.2909C39.0351 89.2259 39.0494 89.157 39.0494 89.0844V88.8635C39.0494 88.7889 39.0351 88.7191 39.0064 88.6541C38.9796 88.589 38.9376 88.5364 38.8802 88.4963C38.8247 88.4561 38.754 88.436 38.6679 88.436C38.5838 88.436 38.513 88.4561 38.4556 88.4963C38.4002 88.5364 38.3581 88.589 38.3294 88.6541C38.3026 88.7191 38.2892 88.7889 38.2892 88.8635ZM39.7809 91.4338V91.2129C39.7809 91.0561 39.8154 90.9126 39.8842 90.7826C39.955 90.6525 40.0573 90.5483 40.1912 90.4699C40.325 90.3915 40.4866 90.3523 40.676 90.3523C40.8729 90.3523 41.0374 90.3915 41.1694 90.4699C41.3013 90.5483 41.4008 90.6525 41.4677 90.7826C41.5366 90.9126 41.571 91.0561 41.571 91.2129V91.4338C41.571 91.5906 41.5366 91.734 41.4677 91.8641C41.4008 91.9941 41.3013 92.0983 41.1694 92.1768C41.0393 92.2552 40.8777 92.2944 40.6846 92.2944C40.4914 92.2944 40.3269 92.2552 40.1912 92.1768C40.0573 92.0983 39.955 91.9941 39.8842 91.8641C39.8154 91.734 39.7809 91.5906 39.7809 91.4338ZM40.2973 91.2129V91.4338C40.2973 91.5084 40.3126 91.5782 40.3432 91.6432C40.3738 91.7063 40.4178 91.7579 40.4752 91.7981C40.5344 91.8383 40.6033 91.8583 40.6817 91.8583C40.7773 91.8583 40.8529 91.8383 40.9083 91.7981C40.9638 91.7579 41.003 91.7063 41.0259 91.6432C41.0489 91.5782 41.0604 91.5084 41.0604 91.4338V91.2129C41.0604 91.1383 41.046 91.0695 41.0173 91.0063C40.9886 90.9413 40.9456 90.8887 40.8882 90.8486C40.8328 90.8084 40.762 90.7883 40.676 90.7883C40.5918 90.7883 40.5211 90.8084 40.4637 90.8486C40.4082 90.8887 40.3661 90.9413 40.3375 91.0063C40.3107 91.0695 40.2973 91.1383 40.2973 91.2129ZM40.8653 88.6569L38.8257 91.9214L38.4499 91.712L40.4895 88.4475L40.8653 88.6569Z" fill="white"/>
<path d="M45.9071 47.1998V51.388H45.1469V48.0862L44.14 48.4189V47.8051L45.821 47.1998H45.9071Z" fill="white"/>
<path d="M50.0781 48.941V49.6439C50.0781 49.9651 50.0456 50.2396 49.9806 50.4672C49.9156 50.6947 49.8219 50.8812 49.6995 51.0266C49.5771 51.17 49.4308 51.2761 49.2606 51.345C49.0904 51.4119 48.901 51.4454 48.6926 51.4454C48.5262 51.4454 48.3713 51.4243 48.2278 51.3823C48.0844 51.3383 47.9553 51.2713 47.8406 51.1815C47.7277 51.0897 47.6302 50.973 47.548 50.8315C47.4677 50.69 47.4055 50.5207 47.3615 50.3237C47.3194 50.1267 47.2984 49.9001 47.2984 49.6439V48.941C47.2984 48.6198 47.3309 48.3463 47.3959 48.1206C47.4629 47.8949 47.5575 47.7104 47.6799 47.567C47.8023 47.4235 47.9486 47.3193 48.1188 47.2543C48.289 47.1873 48.4784 47.1539 48.6868 47.1539C48.8551 47.1539 49.01 47.1749 49.1516 47.217C49.295 47.2591 49.4231 47.325 49.5359 47.4149C49.6507 47.5029 49.7482 47.6176 49.8286 47.7592C49.9089 47.8988 49.9701 48.0671 50.0121 48.264C50.0561 48.4591 50.0781 48.6848 50.0781 48.941ZM49.3208 49.7471V48.8349C49.3208 48.6743 49.3112 48.5346 49.2921 48.4161C49.2749 48.2956 49.2491 48.1933 49.2147 48.1091C49.1802 48.025 49.1372 47.9571 49.0856 47.9055C49.0339 47.8519 48.9747 47.8127 48.9077 47.7878C48.8408 47.763 48.7672 47.7505 48.6868 47.7505C48.5874 47.7505 48.4985 47.7706 48.42 47.8108C48.3416 47.849 48.2757 47.9102 48.2221 47.9944C48.1686 48.0785 48.1274 48.1904 48.0988 48.33C48.072 48.4677 48.0586 48.636 48.0586 48.8349V49.7471C48.0586 49.9078 48.0672 50.0483 48.0844 50.1688C48.1035 50.2893 48.1303 50.3926 48.1647 50.4786C48.2011 50.5647 48.2441 50.6355 48.2938 50.6909C48.3455 50.7445 48.4047 50.7846 48.4717 50.8114C48.5386 50.8363 48.6122 50.8487 48.6926 50.8487C48.7939 50.8487 48.8829 50.8286 48.9594 50.7885C49.0378 50.7483 49.1037 50.6852 49.1573 50.5991C49.2108 50.5111 49.251 50.3974 49.2778 50.2578C49.3065 50.1162 49.3208 49.946 49.3208 49.7471Z" fill="white"/>
<path d="M50.649 48.2354V48.0145C50.649 47.8557 50.6834 47.7113 50.7523 47.5813C50.8211 47.4513 50.9215 47.347 51.0535 47.2686C51.1873 47.1902 51.3499 47.151 51.5411 47.151C51.7362 47.151 51.8997 47.1902 52.0317 47.2686C52.1655 47.347 52.266 47.4513 52.3329 47.5813C52.4017 47.7113 52.4362 47.8557 52.4362 48.0145V48.2354C52.4362 48.3903 52.4017 48.5327 52.3329 48.6628C52.266 48.7928 52.1665 48.8971 52.0345 48.9755C51.9026 49.0539 51.74 49.0931 51.5469 49.0931C51.3537 49.0931 51.1902 49.0539 51.0563 48.9755C50.9225 48.8971 50.8211 48.7928 50.7523 48.6628C50.6834 48.5327 50.649 48.3903 50.649 48.2354ZM51.1625 48.0145V48.2354C51.1625 48.308 51.1759 48.3769 51.2026 48.4419C51.2313 48.505 51.2744 48.5566 51.3317 48.5968C51.3891 48.637 51.4608 48.657 51.5469 48.657C51.6329 48.657 51.7027 48.637 51.7563 48.5968C51.8117 48.5566 51.8529 48.505 51.8796 48.4419C51.9083 48.3769 51.9227 48.308 51.9227 48.2354V48.0145C51.9227 47.9399 51.9083 47.8701 51.8796 47.8051C51.8529 47.74 51.8108 47.6874 51.7534 47.6473C51.698 47.6071 51.6272 47.587 51.5411 47.587C51.457 47.587 51.3862 47.6071 51.3289 47.6473C51.2734 47.6874 51.2313 47.74 51.2026 47.8051C51.1759 47.8701 51.1625 47.9399 51.1625 48.0145ZM52.6542 50.5848V50.3639C52.6542 50.2071 52.6886 50.0636 52.7574 49.9336C52.8282 49.8035 52.9305 49.6993 53.0644 49.6209C53.1983 49.5425 53.3599 49.5033 53.5492 49.5033C53.7462 49.5033 53.9106 49.5425 54.0426 49.6209C54.1746 49.6993 54.274 49.8035 54.3409 49.9336C54.4098 50.0636 54.4442 50.2071 54.4442 50.3639V50.5848C54.4442 50.7416 54.4098 50.885 54.3409 51.0151C54.274 51.1451 54.1746 51.2493 54.0426 51.3278C53.9126 51.4062 53.751 51.4454 53.5578 51.4454C53.3646 51.4454 53.2002 51.4062 53.0644 51.3278C52.9305 51.2493 52.8282 51.1451 52.7574 51.0151C52.6886 50.885 52.6542 50.7416 52.6542 50.5848ZM53.1705 50.3639V50.5848C53.1705 50.6594 53.1858 50.7292 53.2164 50.7942C53.247 50.8573 53.291 50.9089 53.3484 50.9491C53.4077 50.9893 53.4765 51.0093 53.5549 51.0093C53.6506 51.0093 53.7261 50.9893 53.7816 50.9491C53.837 50.9089 53.8762 50.8573 53.8992 50.7942C53.9221 50.7292 53.9336 50.6594 53.9336 50.5848V50.3639C53.9336 50.2893 53.9193 50.2205 53.8906 50.1573C53.8619 50.0923 53.8188 50.0397 53.7615 49.9996C53.706 49.9594 53.6353 49.9393 53.5492 49.9393C53.465 49.9393 53.3943 49.9594 53.3369 49.9996C53.2815 50.0397 53.2394 50.0923 53.2107 50.1573C53.1839 50.2205 53.1705 50.2893 53.1705 50.3639ZM53.7385 47.8079L51.6989 51.0724L51.3231 50.863L53.3627 47.5985L53.7385 47.8079Z" fill="white"/>
<path d="M68.4067 31.3435V35.5317H67.6465V32.2299L66.6396 32.5627V31.9488L68.3207 31.3435H68.4067Z" fill="white"/>
<path d="M72.5778 33.0848V33.7876C72.5778 34.1089 72.5452 34.3833 72.4802 34.6109C72.4152 34.8385 72.3215 35.0249 72.1991 35.1703C72.0767 35.3137 71.9304 35.4199 71.7602 35.4887C71.59 35.5556 71.4007 35.5891 71.1922 35.5891C71.0258 35.5891 70.8709 35.5681 70.7275 35.526C70.584 35.482 70.455 35.4151 70.3402 35.3252C70.2274 35.2334 70.1298 35.1167 70.0476 34.9752C69.9673 34.8337 69.9051 34.6644 69.8611 34.4675C69.8191 34.2705 69.798 34.0439 69.798 33.7876V33.0848C69.798 32.7635 69.8305 32.49 69.8956 32.2643C69.9625 32.0387 70.0572 31.8541 70.1796 31.7107C70.302 31.5673 70.4483 31.463 70.6185 31.398C70.7887 31.3311 70.978 31.2976 71.1865 31.2976C71.3548 31.2976 71.5097 31.3186 71.6512 31.3607C71.7946 31.4028 71.9227 31.4688 72.0356 31.5587C72.1503 31.6466 72.2479 31.7614 72.3282 31.9029C72.4085 32.0425 72.4697 32.2108 72.5118 32.4078C72.5558 32.6028 72.5778 32.8285 72.5778 33.0848ZM71.8204 33.8909V32.9786C71.8204 32.818 71.8109 32.6784 71.7917 32.5598C71.7745 32.4393 71.7487 32.337 71.7143 32.2529C71.6799 32.1687 71.6368 32.1008 71.5852 32.0492C71.5336 31.9956 71.4743 31.9564 71.4073 31.9316C71.3404 31.9067 71.2668 31.8943 71.1865 31.8943C71.087 31.8943 70.9981 31.9144 70.9197 31.9545C70.8413 31.9928 70.7753 32.054 70.7217 32.1381C70.6682 32.2223 70.6271 32.3341 70.5984 32.4738C70.5716 32.6115 70.5582 32.7797 70.5582 32.9786V33.8909C70.5582 34.0515 70.5668 34.1921 70.584 34.3126C70.6032 34.433 70.6299 34.5363 70.6644 34.6224C70.7007 34.7084 70.7437 34.7792 70.7935 34.8347C70.8451 34.8882 70.9044 34.9284 70.9713 34.9551C71.0382 34.98 71.1119 34.9924 71.1922 34.9924C71.2936 34.9924 71.3825 34.9724 71.459 34.9322C71.5374 34.892 71.6034 34.8289 71.6569 34.7429C71.7105 34.6549 71.7506 34.5411 71.7774 34.4015C71.8061 34.26 71.8204 34.0898 71.8204 33.8909Z" fill="white"/>
<path d="M73.1486 32.3791V32.1582C73.1486 31.9995 73.183 31.8551 73.2519 31.725C73.3207 31.595 73.4211 31.4908 73.5531 31.4124C73.687 31.3339 73.8495 31.2947 74.0408 31.2947C74.2358 31.2947 74.3994 31.3339 74.5313 31.4124C74.6652 31.4908 74.7656 31.595 74.8325 31.725C74.9014 31.8551 74.9358 31.9995 74.9358 32.1582V32.3791C74.9358 32.534 74.9014 32.6765 74.8325 32.8065C74.7656 32.9366 74.6661 33.0408 74.5342 33.1192C74.4022 33.1976 74.2397 33.2368 74.0465 33.2368C73.8534 33.2368 73.6898 33.1976 73.556 33.1192C73.4221 33.0408 73.3207 32.9366 73.2519 32.8065C73.183 32.6765 73.1486 32.534 73.1486 32.3791ZM73.6621 32.1582V32.3791C73.6621 32.4518 73.6755 32.5206 73.7023 32.5856C73.731 32.6487 73.774 32.7004 73.8314 32.7405C73.8887 32.7807 73.9604 32.8008 74.0465 32.8008C74.1326 32.8008 74.2024 32.7807 74.2559 32.7405C74.3114 32.7004 74.3525 32.6487 74.3793 32.5856C74.408 32.5206 74.4223 32.4518 74.4223 32.3791V32.1582C74.4223 32.0836 74.408 32.0138 74.3793 31.9488C74.3525 31.8838 74.3104 31.8312 74.2531 31.791C74.1976 31.7509 74.1268 31.7308 74.0408 31.7308C73.9566 31.7308 73.8859 31.7509 73.8285 31.791C73.773 31.8312 73.731 31.8838 73.7023 31.9488C73.6755 32.0138 73.6621 32.0836 73.6621 32.1582ZM75.1538 34.7285V34.5076C75.1538 34.3508 75.1882 34.2074 75.2571 34.0773C75.3278 33.9473 75.4302 33.8431 75.564 33.7646C75.6979 33.6862 75.8595 33.647 76.0488 33.647C76.2458 33.647 76.4103 33.6862 76.5422 33.7646C76.6742 33.8431 76.7736 33.9473 76.8406 34.0773C76.9094 34.2074 76.9438 34.3508 76.9438 34.5076V34.7285C76.9438 34.8853 76.9094 35.0288 76.8406 35.1588C76.7736 35.2889 76.6742 35.3931 76.5422 35.4715C76.4122 35.5499 76.2506 35.5891 76.0574 35.5891C75.8643 35.5891 75.6998 35.5499 75.564 35.4715C75.4302 35.3931 75.3278 35.2889 75.2571 35.1588C75.1882 35.0288 75.1538 34.8853 75.1538 34.7285ZM75.6702 34.5076V34.7285C75.6702 34.8031 75.6855 34.8729 75.7161 34.9379C75.7467 35.001 75.7906 35.0527 75.848 35.0928C75.9073 35.133 75.9762 35.1531 76.0546 35.1531C76.1502 35.1531 76.2257 35.133 76.2812 35.0928C76.3366 35.0527 76.3759 35.001 76.3988 34.9379C76.4218 34.8729 76.4332 34.8031 76.4332 34.7285V34.5076C76.4332 34.433 76.4189 34.3642 76.3902 34.3011C76.3615 34.2361 76.3185 34.1835 76.2611 34.1433C76.2056 34.1031 76.1349 34.0831 76.0488 34.0831C75.9647 34.0831 75.8939 34.1031 75.8365 34.1433C75.7811 34.1835 75.739 34.2361 75.7103 34.3011C75.6836 34.3642 75.6702 34.433 75.6702 34.5076ZM76.2382 31.9517L74.1985 35.2162L73.8228 35.0068L75.8624 31.7422L76.2382 31.9517Z" fill="white"/>
</svg>
