<svg width="126" height="30" viewBox="0 0 126 30" fill="none" xmlns="http://www.w3.org/2000/svg">
    <path fill-rule="evenodd" clip-rule="evenodd"
        d="M48.8799 21.6855L47.1656 29.6557H43.2227L49.7371 0.770734H54.4079L60.5366 29.6557H56.5508L54.8794 21.6855H48.8799ZM54.4079 18.4712L53.0793 11.5703C52.6936 9.5988 52.3079 7.02874 52.0086 4.97083H51.8364C51.5371 7.07088 51.1071 9.72738 50.7228 11.5703L49.3514 18.4712H54.4079ZM75.587 0V24.2992C75.587 25.8856 75.6727 28.2 75.7577 29.6564H72.2869L72.0298 27.1285H71.9012C71.2155 28.585 69.6297 30 67.5304 30C63.6731 30 61.3159 25.7992 61.3159 19.329C61.3159 11.9574 64.4439 8.48592 67.7447 8.48592C69.4154 8.48592 70.744 9.25808 71.4726 10.8431H71.5583V0H75.587V0ZM71.5576 16.7568C71.5576 16.3718 71.5576 15.9004 71.5148 15.4704C71.3005 13.5853 70.229 11.9567 68.7725 11.9567C66.2432 11.9567 65.3868 15.4704 65.3868 19.3283C65.3868 23.6141 66.5011 26.6135 68.644 26.6135C69.544 26.6135 70.7433 26.1421 71.429 23.657C71.5148 23.3141 71.5576 22.7991 71.5576 22.3291V16.7568V16.7568ZM85.1829 29.9993C81.0264 29.9993 78.0256 26.4421 78.0256 19.2862C78.0256 11.6996 81.5821 8.48521 85.3965 8.48521C89.5109 8.48521 92.4674 12.171 92.4674 19.1997C92.4674 27.4714 88.3959 29.9993 85.2251 29.9993H85.1829ZM85.3108 26.8285C87.7959 26.8285 88.3537 22.4141 88.3537 19.2433C88.3537 16.114 87.7966 11.6574 85.2258 11.6574C82.5679 11.6574 82.0543 16.114 82.0543 19.2433C82.0543 22.7141 82.6543 26.8285 85.2687 26.8285H85.3108ZM94.896 0H98.924V11.1853H99.0097C100.081 9.30022 101.538 8.48521 103.381 8.48521C106.938 8.48521 109.167 12.5139 109.167 18.8997C109.167 26.3563 106.124 29.9993 102.695 29.9993C100.638 29.9993 99.4811 28.8843 98.5804 27.0414H98.4104L98.1954 29.6557H94.7246C94.8103 28.2421 94.896 25.8849 94.896 24.2984V0V0ZM98.924 22.2841C98.924 22.757 98.9668 23.2284 99.0954 23.5706C99.7376 26.0999 100.981 26.6135 101.795 26.6135C104.195 26.6135 105.095 23.4427 105.095 19.1569C105.095 15.1711 104.153 11.9567 101.752 11.9567C100.423 11.9567 99.3518 13.5425 99.0518 15.0425C98.9661 15.4711 98.9233 16.029 98.9233 16.4568V22.2841H98.924V22.2841ZM115.112 20.0562C115.154 25.4135 117.468 26.7414 119.911 26.7414C121.368 26.7414 122.611 26.3992 123.511 25.9699L124.111 28.8843C122.868 29.5271 120.982 29.8707 119.139 29.8707C113.911 29.8707 111.169 25.9278 111.169 19.499C111.169 12.6846 114.296 8.48449 118.625 8.48449C122.954 8.48449 124.968 12.6417 124.968 17.8711C124.968 18.899 124.925 19.5426 124.882 20.0991L115.112 20.0562V20.0562ZM121.154 17.1854C121.197 13.4996 119.911 11.5288 118.326 11.5288C116.225 11.5288 115.282 14.5718 115.154 17.1854H121.154Z"
        fill="#627492"></path>
    <path fill-rule="evenodd" clip-rule="evenodd"
        d="M20.5198 0.848145H32.5536V29.656L20.5198 0.848145ZM12.0424 0.848145H0V29.656L12.0424 0.848145ZM16.2818 11.4648L23.9491 29.656H18.9247L16.6318 23.8623H11.0195L16.2818 11.4648Z"
        fill="#627492"></path>
    <path fill-rule="evenodd" clip-rule="evenodd"
        d="M124.627 8.43189C124.747 8.43245 124.867 8.45692 124.978 8.50387C125.089 8.55083 125.19 8.61936 125.275 8.70549C125.359 8.79163 125.426 8.89366 125.471 9.00572C125.516 9.11777 125.538 9.23762 125.537 9.35835C125.537 9.88122 125.133 10.2891 124.622 10.2891C124.116 10.2891 123.704 9.88193 123.704 9.35835C123.703 9.23716 123.726 9.11704 123.772 9.00485C123.818 8.89266 123.886 8.79062 123.971 8.70456C124.056 8.6185 124.158 8.55012 124.269 8.50333C124.381 8.45655 124.501 8.43227 124.622 8.43189H124.627ZM124.622 8.57547C124.215 8.57547 123.881 8.9262 123.881 9.35835C123.881 9.79907 124.215 10.1448 124.627 10.1448C125.038 10.1491 125.367 9.79907 125.367 9.36263C125.367 8.92619 125.038 8.57547 124.627 8.57547H124.622ZM124.449 9.89836H124.285V8.86405C124.372 8.85191 124.454 8.83905 124.578 8.83905C124.734 8.83905 124.837 8.87262 124.899 8.91762C124.961 8.96262 124.994 9.03263 124.994 9.13191C124.994 9.26763 124.903 9.35049 124.792 9.38335V9.39121C124.882 9.40763 124.944 9.49049 124.964 9.64264C124.989 9.80336 125.014 9.86479 125.031 9.89836H124.858C124.833 9.86479 124.809 9.7705 124.788 9.63478C124.763 9.50263 124.697 9.45335 124.565 9.45335H124.45V9.89836H124.449V9.89836ZM124.449 9.32549H124.569C124.704 9.32549 124.821 9.2762 124.821 9.14834C124.821 9.05762 124.754 8.96691 124.569 8.96691C124.516 8.96691 124.478 8.97119 124.449 8.97548V9.32549V9.32549ZM34.1402 0.848145C34.2609 0.8487 34.3803 0.87316 34.4916 0.920119C34.6028 0.967077 34.7036 1.0356 34.7882 1.12174C34.8729 1.20787 34.9396 1.30991 34.9845 1.42197C35.0295 1.53402 35.0518 1.65387 35.0502 1.77459C35.0502 2.29746 34.6466 2.70533 34.1359 2.70533C33.6295 2.70533 33.2173 2.29818 33.2173 1.77459C33.2166 1.65341 33.2399 1.53328 33.2857 1.42109C33.3316 1.30891 33.3991 1.20686 33.4844 1.1208C33.5697 1.03475 33.6712 0.966367 33.783 0.919579C33.8948 0.872792 34.0147 0.848519 34.1359 0.848145H34.1402ZM34.1359 0.991717C33.728 0.991717 33.3944 1.34244 33.3944 1.77459C33.3944 2.21532 33.728 2.56104 34.1402 2.56104C34.5516 2.56532 34.8816 2.21532 34.8816 1.77888C34.8816 1.34244 34.5516 0.991717 34.1402 0.991717H34.1359ZM33.963 2.31461H33.798V1.28029C33.8948 1.26423 33.9928 1.25611 34.0909 1.25601C34.2473 1.25601 34.3502 1.28816 34.4116 1.33387C34.4738 1.37887 34.5066 1.44958 34.5066 1.54816C34.5066 1.68388 34.4159 1.76674 34.3045 1.7996V1.80745C34.3952 1.82388 34.4573 1.90674 34.478 2.0596C34.5023 2.22032 34.5273 2.28175 34.5438 2.31532H34.3709C34.3459 2.28175 34.3209 2.18746 34.3009 2.05174C34.2759 1.9196 34.2102 1.87031 34.078 1.87031H33.963V2.31461V2.31461ZM33.963 1.74174H34.0823C34.218 1.74174 34.3338 1.69245 34.3338 1.56459C34.3338 1.47387 34.268 1.38316 34.0823 1.38316C34.0287 1.38316 33.9916 1.38744 33.963 1.39173V1.74174V1.74174Z"
        fill="#627492"></path>
</svg>