 <svg width="60" height="60" viewBox="0 0 60 60" fill="none" xmlns="http://www.w3.org/2000/svg">
                  <circle cx="30" cy="30" r="30" fill="#393885" />
                  <path
                    d="M45 19.0012C46.25 19.7229 46.25 21.5271 45 22.2488L36.5625 27.1202C35.3125 27.8419 33.75 26.9398 33.75 25.4964L33.75 15.7536C33.75 14.3102 35.3125 13.4081 36.5625 14.1298L45 19.0012Z"
                    fill="white" />
                  <path d="M33.75 20.625L16.875 20.625" stroke="white" strokeWidth="3.75" strokeLinecap="round" />
                  <g opacity="0.5">
                    <path
                      d="M15.9375 40.9988C14.6875 40.2771 14.6875 38.4729 15.9375 37.7512L24.375 32.8798C25.625 32.1581 27.1875 33.0602 27.1875 34.5036L27.1875 44.2464C27.1875 45.6898 25.625 46.5919 24.375 45.8702L15.9375 40.9988Z"
                      fill="white" />
                    <path d="M27.1875 39.375L44.0625 39.375" stroke="white" strokeWidth="3.75"
                      strokeLinecap="round" />
                  </g>
                </svg>