<svg width="60" height="60" viewBox="0 0 60 60" fill="none" xmlns="http://www.w3.org/2000/svg">
  <path
    d="M60 30C60 46.5685 46.5986 60 30.0671 60C24.615 60 19.5033 58.5391 15.1006 55.9865C12.4843 54.4697 3.54901 57.8571 0.134075 54.6429C-0.934883 51.4286 4.77646 46.2711 3.54901 43.9286C1.36807 39.7663 0.134105 35.0276 0.134105 30C0.134105 13.4315 13.5355 0 30.0671 0C46.5986 0 60 13.4315 60 30Z"
    fill="#393885" />
  <rect x="45" y="20.625" width="7.5" height="28.125" rx="3.75" transform="rotate(90 45 20.625)"
    fill="white" />
  <rect opacity="0.5" x="35.625" y="33.75" width="7.5" height="18.75" rx="3.75" transform="rotate(90 35.625 33.75)" fill="white" /> 
</svg>