<svg width="24" height="24" viewBox="0 0 24 24" fill="none" xmlns="http://www.w3.org/2000/svg">
<path d="M12.002 3.80113C14.6744 3.80113 14.9908 3.81285 16.0418 3.85974C17.0186 3.90272 17.546 4.06681 17.8976 4.20356C18.3626 4.38328 18.6986 4.60207 19.0463 4.9498C19.3979 5.30143 19.6128 5.63352 19.7925 6.09846C19.9293 6.45009 20.0934 6.98144 20.1364 7.95429C20.1832 9.00918 20.195 9.32565 20.195 11.9941C20.195 14.6665 20.1832 14.983 20.1364 16.034C20.0934 17.0107 19.9293 17.5382 19.7925 17.8898C19.6128 18.3548 19.394 18.6908 19.0463 19.0385C18.6947 19.3901 18.3626 19.605 17.8976 19.7847C17.546 19.9215 17.0147 20.0856 16.0418 20.1285C14.9869 20.1754 14.6704 20.1871 12.002 20.1871C9.32956 20.1871 9.01309 20.1754 7.9621 20.1285C6.98535 20.0856 6.4579 19.9215 6.10627 19.7847C5.64134 19.605 5.30533 19.3862 4.95761 19.0385C4.60598 18.6869 4.39109 18.3548 4.21137 17.8898C4.07462 17.5382 3.91053 17.0068 3.86755 16.034C3.82067 14.9791 3.80895 14.6626 3.80895 11.9941C3.80895 9.32174 3.82067 9.00527 3.86755 7.95429C3.91053 6.97753 4.07462 6.45009 4.21137 6.09846C4.39109 5.63352 4.60988 5.29752 4.95761 4.9498C5.30924 4.59816 5.64134 4.38328 6.10627 4.20356C6.4579 4.06681 6.98926 3.90272 7.9621 3.85974C9.01309 3.81285 9.32956 3.80113 12.002 3.80113ZM12.002 2C9.28658 2 8.94667 2.01172 7.88006 2.05861C6.81735 2.10549 6.08674 2.2774 5.4538 2.52354C4.79351 2.7814 4.23481 3.12131 3.68002 3.68002C3.12131 4.23481 2.7814 4.79351 2.52354 5.44989C2.2774 6.08674 2.10549 6.81344 2.05861 7.87615C2.01172 8.94667 2 9.28658 2 12.002C2 14.7173 2.01172 15.0572 2.05861 16.1239C2.10549 17.1866 2.2774 17.9172 2.52354 18.5501C2.7814 19.2104 3.12131 19.7691 3.68002 20.3239C4.23481 20.8787 4.79351 21.2225 5.44989 21.4765C6.08674 21.7226 6.81344 21.8945 7.87615 21.9414C8.94276 21.9883 9.28267 22 11.998 22C14.7134 22 15.0533 21.9883 16.1199 21.9414C17.1827 21.8945 17.9133 21.7226 18.5462 21.4765C19.2026 21.2225 19.7613 20.8787 20.3161 20.3239C20.8709 19.7691 21.2147 19.2104 21.4686 18.554C21.7148 17.9172 21.8867 17.1905 21.9336 16.1278C21.9805 15.0611 21.9922 14.7212 21.9922 12.0059C21.9922 9.29049 21.9805 8.95058 21.9336 7.88396C21.8867 6.82125 21.7148 6.09064 21.4686 5.45771C21.2225 4.79351 20.8826 4.23481 20.3239 3.68002C19.7691 3.12522 19.2104 2.7814 18.554 2.52745C17.9172 2.2813 17.1905 2.1094 16.1278 2.06251C15.0572 2.01172 14.7173 2 12.002 2Z" fill="#2E3A44"/>
<path d="M12.0019 6.86426C9.16546 6.86426 6.86423 9.16549 6.86423 12.002C6.86423 14.8385 9.16546 17.1397 12.0019 17.1397C14.8384 17.1397 17.1397 14.8385 17.1397 12.002C17.1397 9.16549 14.8384 6.86426 12.0019 6.86426ZM12.0019 15.3347C10.1617 15.3347 8.66927 13.8422 8.66927 12.002C8.66927 10.1618 10.1617 8.6693 12.0019 8.6693C13.8422 8.6693 15.3346 10.1618 15.3346 12.002C15.3346 13.8422 13.8422 15.3347 12.0019 15.3347Z" fill="#2E3A44"/>
<path d="M18.5423 6.66112C18.5423 7.32532 18.0031 7.86058 17.3429 7.86058C16.6787 7.86058 16.1434 7.32141 16.1434 6.66112C16.1434 5.99693 16.6826 5.46167 17.3429 5.46167C18.0031 5.46167 18.5423 6.00084 18.5423 6.66112Z" fill="#2E3A44"/>
</svg>
