<svg width="200" height="45" viewBox="0 0 200 45" fill="none" xmlns="http://www.w3.org/2000/svg">
<path fill-rule="evenodd" clip-rule="evenodd" d="M18.9356 40.9516L18.9986 40.3881C16.1994 39.9246 13.7109 33.8585 13.3062 31.0177C12.2528 23.6181 15.7706 16.7473 20.321 11.7107C20.3775 11.6477 20.4613 11.5537 20.5188 11.4903L21.7736 10.2224C25.7568 7.07459 30.1137 5.22747 31.0111 4.2796C26.5871 -1.04136 14.5157 -0.0124495 6.80728 0.26492C5.26022 9.22779 3.22602 18.5824 1.41131 27.4647C-1.05398 39.531 -1.92777 44.9107 13.0256 44.926C13.3674 44.2286 12.9349 40.734 18.936 40.9516H18.9356Z" fill="#6167B0"/>
<path fill-rule="evenodd" clip-rule="evenodd" d="M31.6969 4.46208C32.7101 6.0911 33.8589 7.07926 34.867 8.96898C37.9759 14.7947 36.9632 21.1214 34.4048 26.6215C31.9456 31.9096 25.0451 38.8929 18.9986 40.3881L18.9356 40.9516C22.3613 45.923 34.2451 44.908 38.0653 44.9265C44.3452 44.9571 42.7583 45.359 44.0049 39.1832C45.6858 30.8543 48.7211 17.4581 49.769 10.2891C50.3492 6.32031 48.7479 3.39566 46.635 1.83517C43.8511 -0.220786 40.6362 0.126041 36.7937 0.295982C36.1413 1.25728 36.1089 1.95001 35.8889 3.09746L31.6964 4.46208H31.6969Z" fill="#FB3B6F"/>
<path fill-rule="evenodd" clip-rule="evenodd" d="M18.9986 40.388C25.0452 38.8928 31.9456 31.909 34.4049 26.6214C36.9633 21.1208 37.976 14.7946 34.867 8.96888C33.8585 7.07915 32.7101 6.091 31.697 4.46197L31.0112 4.28046C30.1138 5.22786 25.7569 7.07499 21.7737 10.2233L20.5188 11.4911C20.4619 11.5541 20.3781 11.6486 20.3211 11.7115C15.7702 16.7482 12.2524 23.6185 13.3063 31.0186C13.7106 33.8594 16.1995 39.9249 18.9986 40.3889V40.388Z" fill="#393988"/>
<path d="M65.1857 33.4085C65.8376 33.4085 66.4018 33.5171 66.8785 33.7344C67.3621 33.9517 67.7336 34.2601 67.9929 34.6596C68.2523 35.0592 68.3819 35.5323 68.3819 36.079C68.3819 36.6187 68.2523 37.0919 67.9929 37.4984C67.7336 37.8979 67.3621 38.2063 66.8785 38.4236C66.4018 38.6339 65.8376 38.739 65.1857 38.739H63.7033V40.7682H62V33.4085H65.1857ZM65.0911 37.3512C65.6028 37.3512 65.9918 37.2426 66.2581 37.0253C66.5245 36.801 66.6577 36.4856 66.6577 36.079C66.6577 35.6655 66.5245 35.3501 66.2581 35.1328C65.9918 34.9085 65.6028 34.7963 65.0911 34.7963H63.7033V37.3512H65.0911Z" fill="#D85575"/>
<path d="M72.1636 40.8523C71.5678 40.8523 71.0316 40.7297 70.555 40.4844C70.0853 40.232 69.7174 39.8851 69.451 39.4435C69.1846 39.0019 69.0515 38.5007 69.0515 37.94C69.0515 37.3792 69.1846 36.8781 69.451 36.4365C69.7174 35.9949 70.0853 35.6515 70.555 35.4061C71.0316 35.1538 71.5678 35.0276 72.1636 35.0276C72.7594 35.0276 73.2921 35.1538 73.7617 35.4061C74.2313 35.6515 74.5993 35.9949 74.8657 36.4365C75.132 36.8781 75.2652 37.3792 75.2652 37.94C75.2652 38.5007 75.132 39.0019 74.8657 39.4435C74.5993 39.8851 74.2313 40.232 73.7617 40.4844C73.2921 40.7297 72.7594 40.8523 72.1636 40.8523ZM72.1636 39.5066C72.5841 39.5066 72.9276 39.3664 73.194 39.086C73.4673 38.7986 73.604 38.4166 73.604 37.94C73.604 37.4634 73.4673 37.0849 73.194 36.8045C72.9276 36.5171 72.5841 36.3734 72.1636 36.3734C71.743 36.3734 71.3961 36.5171 71.1227 36.8045C70.8493 37.0849 70.7127 37.4634 70.7127 37.94C70.7127 38.4166 70.8493 38.7986 71.1227 39.086C71.3961 39.3664 71.743 39.5066 72.1636 39.5066Z" fill="#D85575"/>
<path d="M76.3615 32.9669H78.0017V40.7682H76.3615V32.9669Z" fill="#D85575"/>
<path d="M81.8054 35.0276C82.6816 35.0276 83.3545 35.2379 83.8241 35.6585C84.2937 36.072 84.5285 36.6993 84.5285 37.5405V40.7682H82.9935V40.0638C82.6851 40.5895 82.1103 40.8523 81.2692 40.8523C80.8346 40.8523 80.4561 40.7787 80.1337 40.6315C79.8183 40.4844 79.5765 40.2811 79.4083 40.0217C79.24 39.7624 79.1559 39.468 79.1559 39.1386C79.1559 38.6129 79.3522 38.1993 79.7447 37.8979C80.1442 37.5965 80.7575 37.4458 81.5846 37.4458H82.8884C82.8884 37.0884 82.7797 36.815 82.5624 36.6257C82.3451 36.4295 82.0192 36.3314 81.5846 36.3314C81.2832 36.3314 80.9853 36.3804 80.6909 36.4785C80.4036 36.5697 80.1582 36.6958 79.955 36.857L79.3662 35.711C79.6746 35.4937 80.0426 35.3255 80.4702 35.2064C80.9047 35.0872 81.3498 35.0276 81.8054 35.0276ZM81.6793 39.7484C81.9596 39.7484 82.2085 39.6853 82.4257 39.5591C82.643 39.4259 82.7972 39.2332 82.8884 38.9809V38.4026H81.7634C81.0905 38.4026 80.754 38.6234 80.754 39.065C80.754 39.2753 80.8346 39.4435 80.9959 39.5696C81.1641 39.6888 81.3919 39.7484 81.6793 39.7484Z" fill="#D85575"/>
<path d="M92.2919 33.4085C92.9438 33.4085 93.508 33.5171 93.9846 33.7344C94.4683 33.9517 94.8398 34.2601 95.0991 34.6596C95.3585 35.0592 95.4881 35.5323 95.4881 36.079C95.4881 36.6187 95.3585 37.0919 95.0991 37.4984C94.8398 37.8979 94.4683 38.2063 93.9846 38.4236C93.508 38.6339 92.9438 38.739 92.2919 38.739H90.8094V40.7682H89.1062V33.4085H92.2919ZM92.1973 37.3512C92.709 37.3512 93.098 37.2426 93.3643 37.0253C93.6307 36.801 93.7639 36.4856 93.7639 36.079C93.7639 35.6655 93.6307 35.3501 93.3643 35.1328C93.098 34.9085 92.709 34.7963 92.1973 34.7963H90.8094V37.3512H92.1973Z" fill="#D85575"/>
<path d="M99.2698 40.8523C98.674 40.8523 98.1378 40.7297 97.6611 40.4844C97.1915 40.232 96.8235 39.8851 96.5572 39.4435C96.2908 39.0019 96.1577 38.5007 96.1577 37.94C96.1577 37.3792 96.2908 36.8781 96.5572 36.4365C96.8235 35.9949 97.1915 35.6515 97.6611 35.4061C98.1378 35.1538 98.674 35.0276 99.2698 35.0276C99.8656 35.0276 100.398 35.1538 100.868 35.4061C101.338 35.6515 101.706 35.9949 101.972 36.4365C102.238 36.8781 102.371 37.3792 102.371 37.94C102.371 38.5007 102.238 39.0019 101.972 39.4435C101.706 39.8851 101.338 40.232 100.868 40.4844C100.398 40.7297 99.8656 40.8523 99.2698 40.8523ZM99.2698 39.5066C99.6903 39.5066 100.034 39.3664 100.3 39.086C100.574 38.7986 100.71 38.4166 100.71 37.94C100.71 37.4634 100.574 37.0849 100.3 36.8045C100.034 36.5171 99.6903 36.3734 99.2698 36.3734C98.8492 36.3734 98.5023 36.5171 98.2289 36.8045C97.9555 37.0849 97.8189 37.4634 97.8189 37.94C97.8189 38.4166 97.9555 38.7986 98.2289 39.086C98.5023 39.3664 98.8492 39.5066 99.2698 39.5066Z" fill="#D85575"/>
<path d="M103.468 32.9669H105.108V40.7682H103.468V32.9669Z" fill="#D85575"/>
<path d="M106.63 35.1117H108.27V40.7682H106.63V35.1117ZM107.45 34.3232C107.149 34.3232 106.903 34.2356 106.714 34.0603C106.525 33.8851 106.43 33.6678 106.43 33.4085C106.43 33.1491 106.525 32.9319 106.714 32.7566C106.903 32.5814 107.149 32.4938 107.45 32.4938C107.752 32.4938 107.997 32.5779 108.186 32.7461C108.375 32.9143 108.47 33.1246 108.47 33.3769C108.47 33.6503 108.375 33.8781 108.186 34.0603C107.997 34.2356 107.752 34.3232 107.45 34.3232Z" fill="#D85575"/>
<path d="M113.441 40.4949C113.28 40.614 113.08 40.7051 112.842 40.7682C112.61 40.8243 112.365 40.8523 112.106 40.8523C111.433 40.8523 110.91 40.6806 110.539 40.3372C110.174 39.9937 109.992 39.489 109.992 38.8232V36.4996H109.12V35.2379H109.992V33.8606H111.632V35.2379H113.041V36.4996H111.632V38.8021C111.632 39.0404 111.692 39.2262 111.811 39.3594C111.937 39.4855 112.113 39.5486 112.337 39.5486C112.596 39.5486 112.817 39.4785 112.999 39.3383L113.441 40.4949Z" fill="#D85575"/>
<path d="M114.362 35.1117H116.002V40.7682H114.362V35.1117ZM115.182 34.3232C114.88 34.3232 114.635 34.2356 114.446 34.0603C114.256 33.8851 114.162 33.6678 114.162 33.4085C114.162 33.1491 114.256 32.9319 114.446 32.7566C114.635 32.5814 114.88 32.4938 115.182 32.4938C115.483 32.4938 115.728 32.5779 115.918 32.7461C116.107 32.9143 116.201 33.1246 116.201 33.3769C116.201 33.6503 116.107 33.8781 115.918 34.0603C115.728 34.2356 115.483 34.3232 115.182 34.3232Z" fill="#D85575"/>
<path d="M119.953 38.5498L119.164 39.3278V40.7682H117.524V32.9669H119.164V37.3827L121.561 35.1117H123.517L121.162 37.5089L123.727 40.7682H121.74L119.953 38.5498Z" fill="#D85575"/>
<path d="M132.531 36.9727H134.087V39.9587C133.688 40.2601 133.225 40.4914 132.699 40.6526C132.174 40.8138 131.644 40.8944 131.112 40.8944C130.348 40.8944 129.661 40.7332 129.051 40.4108C128.441 40.0813 127.961 39.6292 127.611 39.0545C127.267 38.4727 127.095 37.8173 127.095 37.0884C127.095 36.3594 127.267 35.7075 127.611 35.1328C127.961 34.551 128.445 34.0989 129.061 33.7765C129.678 33.447 130.372 33.2823 131.143 33.2823C131.788 33.2823 132.373 33.391 132.899 33.6082C133.425 33.8255 133.866 34.141 134.224 34.5545L133.13 35.5638C132.605 35.0101 131.97 34.7332 131.227 34.7332C130.758 34.7332 130.341 34.8314 129.976 35.0276C129.612 35.2239 129.328 35.5008 129.125 35.8582C128.921 36.2157 128.82 36.6257 128.82 37.0884C128.82 37.544 128.921 37.9505 129.125 38.308C129.328 38.6654 129.608 38.9458 129.966 39.1491C130.33 39.3453 130.744 39.4435 131.206 39.4435C131.697 39.4435 132.139 39.3383 132.531 39.1281V36.9727Z" fill="#D85575"/>
<path d="M137.835 35.0276C138.711 35.0276 139.384 35.2379 139.854 35.6585C140.323 36.072 140.558 36.6993 140.558 37.5405V40.7682H139.023V40.0638C138.715 40.5895 138.14 40.8523 137.299 40.8523C136.864 40.8523 136.486 40.7787 136.163 40.6315C135.848 40.4844 135.606 40.2811 135.438 40.0217C135.27 39.7624 135.186 39.468 135.186 39.1386C135.186 38.6129 135.382 38.1993 135.774 37.8979C136.174 37.5965 136.787 37.4458 137.614 37.4458H138.918C138.918 37.0884 138.809 36.815 138.592 36.6257C138.375 36.4295 138.049 36.3314 137.614 36.3314C137.313 36.3314 137.015 36.3804 136.721 36.4785C136.433 36.5697 136.188 36.6958 135.985 36.857L135.396 35.711C135.704 35.4937 136.072 35.3255 136.5 35.2064C136.934 35.0872 137.38 35.0276 137.835 35.0276ZM137.709 39.7484C137.989 39.7484 138.238 39.6853 138.455 39.5591C138.673 39.4259 138.827 39.2332 138.918 38.9809V38.4026H137.793C137.12 38.4026 136.784 38.6234 136.784 39.065C136.784 39.2753 136.864 39.4435 137.026 39.5696C137.194 39.6888 137.422 39.7484 137.709 39.7484Z" fill="#D85575"/>
<path d="M147.554 35.1117L145 41.1152C144.74 41.767 144.418 42.2262 144.032 42.4925C143.654 42.7589 143.195 42.892 142.655 42.892C142.361 42.892 142.07 42.8465 141.782 42.7554C141.495 42.6642 141.26 42.5381 141.078 42.3769L141.677 41.2098C141.803 41.322 141.947 41.4096 142.108 41.4727C142.276 41.5357 142.441 41.5673 142.602 41.5673C142.827 41.5673 143.009 41.5112 143.149 41.3991C143.289 41.2939 143.415 41.1152 143.528 40.8629L143.549 40.8103L141.099 35.1117H142.792L144.379 38.9493L145.977 35.1117H147.554Z" fill="#D85575"/>
<path d="M150.32 35.0276C151.197 35.0276 151.869 35.2379 152.339 35.6585C152.809 36.072 153.044 36.6993 153.044 37.5405V40.7682H151.508V40.0638C151.2 40.5895 150.625 40.8523 149.784 40.8523C149.35 40.8523 148.971 40.7787 148.649 40.6315C148.333 40.4844 148.091 40.2811 147.923 40.0217C147.755 39.7624 147.671 39.468 147.671 39.1386C147.671 38.6129 147.867 38.1993 148.26 37.8979C148.659 37.5965 149.273 37.4458 150.1 37.4458H151.403C151.403 37.0884 151.295 36.815 151.077 36.6257C150.86 36.4295 150.534 36.3314 150.1 36.3314C149.798 36.3314 149.5 36.3804 149.206 36.4785C148.919 36.5697 148.673 36.6958 148.47 36.857L147.881 35.711C148.19 35.4937 148.558 35.3255 148.985 35.2064C149.42 35.0872 149.865 35.0276 150.32 35.0276ZM150.194 39.7484C150.475 39.7484 150.723 39.6853 150.941 39.5591C151.158 39.4259 151.312 39.2332 151.403 38.9809V38.4026H150.278C149.605 38.4026 149.269 38.6234 149.269 39.065C149.269 39.2753 149.35 39.4435 149.511 39.5696C149.679 39.6888 149.907 39.7484 150.194 39.7484Z" fill="#D85575"/>
<path d="M163.025 36.9412C163.446 37.0743 163.775 37.2986 164.014 37.6141C164.252 37.9225 164.371 38.3045 164.371 38.7601C164.371 39.4049 164.119 39.9026 163.614 40.253C163.116 40.5965 162.387 40.7682 161.427 40.7682H157.621V33.4085H161.217C162.114 33.4085 162.801 33.5802 163.278 33.9237C163.761 34.2671 164.003 34.7332 164.003 35.322C164.003 35.6795 163.916 35.9984 163.74 36.2788C163.572 36.5592 163.334 36.7799 163.025 36.9412ZM159.314 34.6912V36.426H161.007C161.427 36.426 161.746 36.3524 161.963 36.2052C162.181 36.058 162.289 35.8407 162.289 35.5533C162.289 35.2659 162.181 35.0522 161.963 34.912C161.746 34.7648 161.427 34.6912 161.007 34.6912H159.314ZM161.301 39.4855C161.75 39.4855 162.086 39.4119 162.31 39.2647C162.542 39.1175 162.657 38.8897 162.657 38.5813C162.657 37.9715 162.205 37.6666 161.301 37.6666H159.314V39.4855H161.301Z" fill="#D85575"/>
<path d="M167.827 35.0276C168.703 35.0276 169.376 35.2379 169.845 35.6585C170.315 36.072 170.55 36.6993 170.55 37.5405V40.7682H169.015V40.0638C168.706 40.5895 168.131 40.8523 167.29 40.8523C166.856 40.8523 166.477 40.7787 166.155 40.6315C165.839 40.4844 165.598 40.2811 165.429 40.0217C165.261 39.7624 165.177 39.468 165.177 39.1386C165.177 38.6129 165.373 38.1993 165.766 37.8979C166.165 37.5965 166.779 37.4458 167.606 37.4458H168.909C168.909 37.0884 168.801 36.815 168.584 36.6257C168.366 36.4295 168.04 36.3314 167.606 36.3314C167.304 36.3314 167.006 36.3804 166.712 36.4785C166.425 36.5697 166.179 36.6958 165.976 36.857L165.387 35.711C165.696 35.4937 166.064 35.3255 166.491 35.2064C166.926 35.0872 167.371 35.0276 167.827 35.0276ZM167.7 39.7484C167.981 39.7484 168.23 39.6853 168.447 39.5591C168.664 39.4259 168.818 39.2332 168.909 38.9809V38.4026H167.784C167.112 38.4026 166.775 38.6234 166.775 39.065C166.775 39.2753 166.856 39.4435 167.017 39.5696C167.185 39.6888 167.413 39.7484 167.7 39.7484Z" fill="#D85575"/>
<path d="M173.601 35.8582C173.797 35.5849 174.06 35.3781 174.389 35.2379C174.726 35.0977 175.111 35.0276 175.546 35.0276V36.5416C175.363 36.5276 175.241 36.5206 175.178 36.5206C174.708 36.5206 174.34 36.6538 174.074 36.9201C173.807 37.1795 173.674 37.572 173.674 38.0977V40.7682H172.034V35.1117H173.601V35.8582Z" fill="#D85575"/>
<path d="M182.261 35.1117V40.7682H180.704V40.0953C180.487 40.3407 180.228 40.5299 179.926 40.6631C179.625 40.7893 179.299 40.8523 178.949 40.8523C178.206 40.8523 177.617 40.6386 177.182 40.211C176.748 39.7834 176.53 39.1491 176.53 38.308V35.1117H178.171V38.0661C178.171 38.9774 178.553 39.433 179.317 39.433C179.709 39.433 180.025 39.3068 180.263 39.0545C180.501 38.7951 180.62 38.4131 180.62 37.9084V35.1117H182.261Z" fill="#D85575"/>
<path d="M71.5571 4.30019C73.5127 4.30019 75.2055 4.62612 76.6354 5.27799C78.0863 5.92985 79.2008 6.85508 79.9788 8.05366C80.7568 9.25225 81.1458 10.6716 81.1458 12.3118C81.1458 13.9309 80.7568 15.3503 79.9788 16.5699C79.2008 17.7685 78.0863 18.6937 76.6354 19.3456C75.2055 19.9764 73.5127 20.2919 71.5571 20.2919H67.1098V26.3794H62V4.30019H71.5571ZM71.2733 16.1283C72.8083 16.1283 73.9753 15.8024 74.7744 15.1506C75.5735 14.4777 75.973 13.5314 75.973 12.3118C75.973 11.0712 75.5735 10.1249 74.7744 9.47304C73.9753 8.80015 72.8083 8.4637 71.2733 8.4637H67.1098V16.1283H71.2733Z" fill="white"/>
<path d="M92.4908 26.6318C90.7034 26.6318 89.0948 26.2638 87.6649 25.5278C86.256 24.7708 85.1521 23.7299 84.353 22.4052C83.5539 21.0804 83.1544 19.5769 83.1544 17.8947C83.1544 16.2125 83.5539 14.709 84.353 13.3842C85.1521 12.0595 86.256 11.0291 87.6649 10.2931C89.0948 9.53612 90.7034 9.15762 92.4908 9.15762C94.2781 9.15762 95.8762 9.53612 97.2851 10.2931C98.694 11.0291 99.7979 12.0595 100.597 13.3842C101.396 14.709 101.796 16.2125 101.796 17.8947C101.796 19.5769 101.396 21.0804 100.597 22.4052C99.7979 23.7299 98.694 24.7708 97.2851 25.5278C95.8762 26.2638 94.2781 26.6318 92.4908 26.6318ZM92.4908 22.5944C93.7524 22.5944 94.7828 22.1738 95.5819 21.3327C96.4019 20.4706 96.812 19.3246 96.812 17.8947C96.812 16.4648 96.4019 15.3293 95.5819 14.4882C94.7828 13.626 93.7524 13.195 92.4908 13.195C91.2291 13.195 90.1882 13.626 89.3681 14.4882C88.548 15.3293 88.138 16.4648 88.138 17.8947C88.138 19.3246 88.548 20.4706 89.3681 21.3327C90.1882 22.1738 91.2291 22.5944 92.4908 22.5944Z" fill="white"/>
<path d="M105.085 2.97544H110.005V26.3794H105.085V2.97544Z" fill="white"/>
<path d="M121.416 9.15762C124.045 9.15762 126.063 9.78846 127.472 11.0501C128.881 12.2908 129.586 14.1728 129.586 16.6961V26.3794H124.98V24.2661C124.055 25.8432 122.331 26.6318 119.808 26.6318C118.504 26.6318 117.368 26.411 116.401 25.9694C115.455 25.5278 114.729 24.918 114.225 24.14C113.72 23.3619 113.468 22.4788 113.468 21.4904C113.468 19.9134 114.057 18.6727 115.234 17.7685C116.433 16.8643 118.273 16.4122 120.754 16.4122H124.665C124.665 15.3398 124.339 14.5197 123.687 13.952C123.035 13.3632 122.058 13.0688 120.754 13.0688C119.85 13.0688 118.956 13.216 118.073 13.5104C117.211 13.7837 116.475 14.1622 115.865 14.6459L114.099 11.2078C115.024 10.556 116.128 10.0513 117.41 9.69383C118.714 9.33636 120.049 9.15762 121.416 9.15762ZM121.038 23.3199C121.879 23.3199 122.625 23.1306 123.277 22.7521C123.929 22.3526 124.392 21.7743 124.665 21.0173V19.2825H121.29C119.271 19.2825 118.262 19.9449 118.262 21.2697C118.262 21.9005 118.504 22.4052 118.988 22.7837C119.492 23.1411 120.176 23.3199 121.038 23.3199Z" fill="white"/>
<path d="M143.943 4.30019C145.899 4.30019 147.591 4.62612 149.021 5.27799C150.472 5.92985 151.587 6.85508 152.365 8.05366C153.143 9.25225 153.532 10.6716 153.532 12.3118C153.532 13.9309 153.143 15.3503 152.365 16.5699C151.587 17.7685 150.472 18.6937 149.021 19.3456C147.591 19.9764 145.899 20.2919 143.943 20.2919H139.496V26.3794H134.386V4.30019H143.943ZM143.659 16.1283C145.194 16.1283 146.361 15.8024 147.16 15.1506C147.959 14.4777 148.359 13.5314 148.359 12.3118C148.359 11.0712 147.959 10.1249 147.16 9.47304C146.361 8.80015 145.194 8.4637 143.659 8.4637H139.496V16.1283H143.659Z" fill="white"/>
<path d="M164.877 26.6318C163.089 26.6318 161.481 26.2638 160.051 25.5278C158.642 24.7708 157.538 23.7299 156.739 22.4052C155.94 21.0804 155.54 19.5769 155.54 17.8947C155.54 16.2125 155.94 14.709 156.739 13.3842C157.538 12.0595 158.642 11.0291 160.051 10.2931C161.481 9.53612 163.089 9.15762 164.877 9.15762C166.664 9.15762 168.262 9.53612 169.671 10.2931C171.08 11.0291 172.184 12.0595 172.983 13.3842C173.782 14.709 174.181 16.2125 174.181 17.8947C174.181 19.5769 173.782 21.0804 172.983 22.4052C172.184 23.7299 171.08 24.7708 169.671 25.5278C168.262 26.2638 166.664 26.6318 164.877 26.6318ZM164.877 22.5944C166.138 22.5944 167.169 22.1738 167.968 21.3327C168.788 20.4706 169.198 19.3246 169.198 17.8947C169.198 16.4648 168.788 15.3293 167.968 14.4882C167.169 13.626 166.138 13.195 164.877 13.195C163.615 13.195 162.574 13.626 161.754 14.4882C160.934 15.3293 160.524 16.4648 160.524 17.8947C160.524 19.3246 160.934 20.4706 161.754 21.3327C162.574 22.1738 163.615 22.5944 164.877 22.5944Z" fill="white"/>
<path d="M177.47 2.97544H182.391V26.3794H177.47V2.97544Z" fill="white"/>
<path d="M186.958 9.40996H191.878V26.3794H186.958V9.40996ZM189.418 7.04433C188.514 7.04433 187.778 6.78148 187.21 6.25578C186.642 5.73009 186.358 5.07822 186.358 4.30019C186.358 3.52216 186.642 2.8703 187.21 2.34461C187.778 1.81891 188.514 1.55606 189.418 1.55606C190.322 1.55606 191.058 1.8084 191.626 2.31306C192.193 2.81773 192.477 3.44857 192.477 4.20557C192.477 5.02565 192.193 5.70906 191.626 6.25578C191.058 6.78148 190.322 7.04433 189.418 7.04433Z" fill="white"/>
</svg>
