<svg width="20" height="20" viewBox="0 0 20 20" fill="none" xmlns="http://www.w3.org/2000/svg">
<path opacity="0.4" d="M13.3963 1.6665H16.2179C17.3865 1.6665 18.3333 2.62138 18.3333 3.79981V6.64527C18.3333 7.8237 17.3865 8.77858 16.2179 8.77858H13.3963C12.2277 8.77858 11.2808 7.8237 11.2808 6.64527V3.79981C11.2808 2.62138 12.2277 1.6665 13.3963 1.6665"/>
<path fill-rule="evenodd" clip-rule="evenodd" d="M3.78212 1.6665H6.60376C7.77232 1.6665 8.7192 2.62138 8.7192 3.79981V6.64527C8.7192 7.8237 7.77232 8.77858 6.60376 8.77858H3.78212C2.61357 8.77858 1.66669 7.8237 1.66669 6.64527V3.79981C1.66669 2.62138 2.61357 1.6665 3.78212 1.6665ZM3.78212 11.2211H6.60376C7.77232 11.2211 8.7192 12.176 8.7192 13.3544V16.1999C8.7192 17.3775 7.77232 18.3332 6.60376 18.3332H3.78212C2.61357 18.3332 1.66669 17.3775 1.66669 16.1999V13.3544C1.66669 12.176 2.61357 11.2211 3.78212 11.2211ZM16.2179 11.2211H13.3963C12.2277 11.2211 11.2808 12.176 11.2808 13.3544V16.1999C11.2808 17.3775 12.2277 18.3332 13.3963 18.3332H16.2179C17.3865 18.3332 18.3334 17.3775 18.3334 16.1999V13.3544C18.3334 12.176 17.3865 11.2211 16.2179 11.2211Z" />
</svg>
