<svg width="20" height="20" viewBox="0 0 20 20" fill="none" xmlns="http://www.w3.org/2000/svg">
<path opacity="0.4" d="M14.0703 4.26245H11.6177C11.0067 4.26649 10.4267 3.99471 10.0395 3.523L9.23186 2.40643C8.85116 1.93059 8.2711 1.65754 7.66103 1.66699H5.92719C2.81518 1.66699 1.6667 3.49343 1.6667 6.59911V9.95621C1.66282 10.3254 18.3297 10.3249 18.3308 9.95621V8.98014C18.3456 5.87445 17.2268 4.26245 14.0703 4.26245Z" fill="#A0AABF"/>
<path fill-rule="evenodd" clip-rule="evenodd" d="M17.3601 5.45299C17.6267 5.76472 17.8328 6.12331 17.9677 6.5104C18.2332 7.30597 18.3561 8.14201 18.3308 8.98016V13.3577C18.3297 13.7264 18.3025 14.0946 18.2493 14.4595C18.148 15.1034 17.9214 15.7214 17.5824 16.2785C17.4266 16.5476 17.2374 16.7961 17.0193 17.018C16.0319 17.9241 14.7208 18.3958 13.3812 18.3268H6.60886C5.2671 18.3953 3.95387 17.9238 2.96336 17.018C2.74786 16.7957 2.56116 16.5472 2.40764 16.2785C2.07065 15.7218 1.84893 15.1032 1.7556 14.4595C1.69626 14.0952 1.66653 13.7267 1.66669 13.3577V8.98016C1.66654 8.61456 1.68633 8.24923 1.72597 7.88577C1.7343 7.82201 1.7468 7.75928 1.75917 7.6972C1.7798 7.59371 1.80006 7.49203 1.80006 7.39034C1.87528 6.95174 2.01249 6.52601 2.20759 6.12589C2.78553 4.89101 3.97106 4.26247 5.91237 4.26247H14.0629C15.1502 4.17838 16.2294 4.50571 17.086 5.17939C17.1846 5.26304 17.2763 5.35454 17.3601 5.45299ZM5.80863 12.951H14.1963H14.2111C14.3951 12.959 14.5747 12.8931 14.7097 12.7681C14.8448 12.643 14.924 12.4692 14.9298 12.2855C14.9402 12.124 14.887 11.9648 14.7816 11.8418C14.6603 11.6766 14.4682 11.5779 14.2629 11.5756H5.80863C5.42806 11.5756 5.11954 11.8835 5.11954 12.2633C5.11954 12.6431 5.42806 12.951 5.80863 12.951Z" fill="#A0AABF"/>
</svg>
