<svg width="51" height="50" viewBox="0 0 51 50" fill="none" xmlns="http://www.w3.org/2000/svg">
<path d="M46.333 30.6299V33.5123C46.333 33.9906 46.3121 34.4731 46.2703 34.9514C45.6858 41.5328 41.1142 45.8334 34.5177 45.8334H16.4816C13.1416 45.8334 10.3234 44.7493 8.29856 42.7839C7.50531 42.055 6.83731 41.1986 6.31543 40.2169C7.00431 39.3794 7.77669 38.4624 8.52819 37.5434C9.80157 36.0187 11.0332 34.5128 11.8056 33.5332C12.9537 32.1129 15.9806 28.3742 20.1765 30.1287C21.0324 30.4837 21.7839 30.985 22.4727 31.4236C24.1636 32.5515 24.8734 32.8857 26.0633 32.2382C27.3784 31.5281 28.2343 30.1287 29.1319 28.6666C29.612 27.8917 30.0921 27.1419 30.614 26.4526C32.8894 23.4867 36.3964 22.693 39.3189 24.4475C40.7802 25.3247 42.0327 26.4317 43.2017 27.5575C43.4522 27.8081 43.7027 28.04 43.9323 28.2697C44.2455 28.583 45.2892 29.6274 46.333 30.6299Z" fill="#A0AABF"/>
<path opacity="0.4" d="M34.5392 4.16669H16.4823C9.40564 4.16669 4.66699 9.11683 4.66699 16.4878V33.5125C4.66699 36.0795 5.25149 38.3582 6.31612 40.2171C7.005 39.3796 7.77738 38.4626 8.52888 37.5415C9.80226 36.0189 11.0339 34.513 11.8063 33.5334C12.9544 32.1131 15.9813 28.3744 20.1772 30.1289C21.0331 30.4839 21.7846 30.9852 22.4734 31.4238C24.1643 32.5517 24.8741 32.8859 26.064 32.2363C27.3791 31.5283 28.235 30.1289 29.1326 28.6647C29.6127 27.8919 30.0928 27.1421 30.6147 26.4528C32.8901 23.4869 36.3971 22.6932 39.3196 24.4477C40.7809 25.3249 42.0334 26.4319 43.2024 27.5577C43.4529 27.8083 43.7034 28.0402 43.933 28.2699C44.2462 28.5811 45.2899 29.6255 46.3337 30.6301V16.4878C46.3337 9.11683 41.595 4.16669 34.5392 4.16669Z" fill="#A0AABF"/>
<path d="M24.3641 18.3264C24.3641 21.261 21.9196 23.7047 18.9867 23.7047C16.0558 23.7047 13.6113 21.261 13.6113 18.3264C13.6113 15.3939 16.0558 12.9481 18.9867 12.9481C21.9196 12.9481 24.3641 15.3939 24.3641 18.3264Z" fill="#A0AABF"/>
</svg>
