<svg width="24" height="25" viewBox="0 0 24 25" fill="none" xmlns="http://www.w3.org/2000/svg">
<path fill-rule="evenodd" clip-rule="evenodd" d="M22 10.8069C22 11.2006 21.6832 11.5198 21.2923 11.5198L21.2835 11.502C21.0958 11.502 20.9158 11.4269 20.7831 11.2932C20.6504 11.1595 20.5759 10.9782 20.5759 10.7891V9.34554C20.5519 6.91955 18.6055 4.95879 16.1973 4.93465H7.80274C5.39451 4.95879 3.44811 6.91955 3.42415 9.34554V15.6545C3.44811 18.0805 5.39451 20.0412 7.80274 20.0653H16.1973C18.6055 20.0412 20.5519 18.0805 20.5759 15.6545C20.6163 15.2891 20.923 15.0127 21.2879 15.0127C21.6529 15.0127 21.9595 15.2891 22 15.6545C21.9903 18.8788 19.398 21.4902 16.1973 21.5H7.80274C4.6 21.4951 2.00487 18.8808 2 15.6545V9.34554C2 6.11714 4.59798 3.5 7.80274 3.5H16.1973C19.398 3.50979 21.9903 6.1212 22 9.34554V10.8069ZM12.7386 12.3574L16.8518 9.04257H16.8607C17.167 8.79731 17.6119 8.84491 17.8602 9.1495C17.9785 9.298 18.0329 9.488 18.0113 9.67715C17.9897 9.86629 17.8939 10.0389 17.7452 10.1564L13.632 13.4802C12.5862 14.328 11.0954 14.328 10.0495 13.4802L5.92747 10.1564C5.6251 9.90629 5.57785 9.45805 5.82132 9.1495C5.93771 9.00163 6.10817 8.90703 6.29443 8.88693C6.4807 8.86682 6.66718 8.9229 6.81203 9.04257L10.9695 12.3574C11.4888 12.7679 12.2193 12.7679 12.7386 12.3574Z" fill="#130F26"/>
</svg>
