<svg width="24" height="25" viewBox="0 0 24 25" fill="none" xmlns="http://www.w3.org/2000/svg">
<path fill-rule="evenodd" clip-rule="evenodd" d="M12.0102 4H11.9929C9.86763 4 8.13673 5.694 8.12657 7.784V9.127H15.8724V7.801C15.8724 5.705 14.1395 4 12.0102 4ZM17.397 7.801V9.398C19.197 10.019 20.5 11.688 20.5 13.669V17.958C20.5 20.463 18.4286 22.5 15.8826 22.5H15.8531H12.4421C12.0213 22.5 11.6798 22.164 11.6798 21.75C11.6798 21.336 12.0213 21 12.4421 21H15.8531C17.5586 21 18.9449 19.636 18.9449 17.958C18.9449 17.9214 18.9545 17.8883 18.964 17.8552C18.9681 17.8412 18.9721 17.8272 18.9754 17.813V13.669C18.9754 11.991 17.5881 10.627 15.8826 10.627H8.11742C6.41193 10.627 5.02457 11.991 5.02457 13.669V17.813C5.02782 17.8283 5.032 17.8434 5.03619 17.8584C5.04511 17.8905 5.05405 17.9226 5.05405 17.958C5.05405 19.636 6.44141 21 8.1469 21C8.56768 21 8.90918 21.336 8.90918 21.75C8.90918 22.164 8.56768 22.5 8.1469 22.5C8.14334 22.5 8.14004 22.4995 8.13673 22.499C8.13343 22.4985 8.13013 22.498 8.12657 22.498C8.12504 22.498 8.12352 22.4985 8.122 22.499C8.12047 22.4995 8.11895 22.5 8.11742 22.5C5.57139 22.5 3.5 20.463 3.5 17.958V13.669C3.5 11.688 4.80198 10.019 6.602 9.398V7.801C6.61521 4.863 9.03013 2.5 11.9898 2.5H12.0132C14.98 2.5 17.397 4.878 17.397 7.801ZM12.7621 14.7028V16.9238C12.7621 17.3378 12.4206 17.6738 11.9998 17.6738C11.579 17.6738 11.2375 17.3378 11.2375 16.9238V14.7028C11.2375 14.2888 11.579 13.9528 11.9998 13.9528C12.4206 13.9528 12.7621 14.2888 12.7621 14.7028Z" fill="#130F26"/>
</svg>
