<svg width="24" height="25" viewBox="0 0 24 25" fill="none" xmlns="http://www.w3.org/2000/svg">
<path fill-rule="evenodd" clip-rule="evenodd" d="M8.05836 7.85387C8.05836 5.69392 9.82642 3.93696 12 3.93696C14.1736 3.93696 15.9416 5.69392 15.9416 7.85387C15.9416 10.0128 14.1736 11.7698 12 11.7698C9.82642 11.7698 8.05836 10.0128 8.05836 7.85387ZM6.61233 7.85387C6.61233 10.8048 9.02943 13.2067 12 13.2067C14.9706 13.2067 17.3867 10.8048 17.3867 7.85387C17.3867 4.90194 14.9706 2.5 12 2.5C9.02943 2.5 6.61233 4.90194 6.61233 7.85387ZM10.9776 22.485C11.3127 22.495 11.6538 22.5 12 22.5C15.4345 22.5 20 22.119 20 18.8301C20 15.1392 13.9784 15.1392 12 15.1392C8.56553 15.1392 4 15.5202 4 18.8101C4 19.7951 4.46088 21.124 6.6566 21.863C7.03597 21.993 7.44453 21.788 7.57333 21.413C7.70113 21.038 7.49887 20.631 7.1205 20.504C5.61811 19.9981 5.44503 19.2951 5.44503 18.8101C5.44503 17.3271 7.65082 16.5751 12 16.5751C16.3492 16.5751 18.555 17.3341 18.555 18.8301C18.555 20.3121 16.3492 21.063 12 21.063C11.6679 21.063 11.3409 21.059 11.0189 21.05C10.6325 21.053 10.2883 21.351 10.2772 21.747C10.2652 22.144 10.5791 22.475 10.9776 22.485Z" fill="#2E3A44"/>
</svg>
